<svg xmlns="http://www.w3.org/2000/svg" width="805" height="600"><rect width="805" height="600" x="0" y="0" fill="#FFFFFF" id="background"/><g id="viz"><g transform="translate(0,0)"><g transform="translate(10,20)"><g><path fill="#9467bd" d="M0,481.99390545763333L2.8442028985507246,481.89257198712784C5.688405797101449,481.7912385166222,11.376811594202898,481.58857157561107,17.065217391304348,481.8014573457555C22.753623188405797,482.0143431159,28.442028985507246,482.6427815972,34.130434782608695,481.2598977530556C39.81884057971015,479.8770139089111,45.507246376811594,476.4828077393222,51.19565217391304,471.8704179306833C56.88405797101449,467.25802812204444,62.57246376811594,461.4274546743556,68.26086956521739,454.59791710884446C73.94927536231883,447.76837954333337,79.6376811594203,439.93987785999997,85.32608695652173,440.01820776277776C91.01449275362319,440.09653766555556,96.70289855072463,448.0816991544444,102.39130434782608,454.5314079794444C108.07971014492755,460.9811168044444,113.76811594202898,465.8953729655555,119.45652173913044,468.1697062136111C125.14492753623188,470.4440394616666,130.83333333333334,470.0784497966667,136.52173913043478,470.14169595175554C142.21014492753622,470.2049421068444,147.89855072463766,470.6970240820222,153.58695652173913,467.3298543329278C159.2753623188406,463.9626845838334,164.96376811594203,456.7362631104667,170.65217391304347,429.7258940552667C176.3405797101449,402.7155250000667,182.02898550724638,355.9212083630334,187.71739130434784,333.69349602385C193.40579710144928,311.46578368466663,199.09420289855072,313.80467564333327,204.78260869565216,313.18604081027775C210.4710144927536,312.5674059772222,216.15942028985503,308.9912443524444,221.8478260869565,300.6047927673556C227.53623188405797,292.21834118226667,233.2246376811594,279.02159963686665,238.91304347826087,268.3864153076833C244.60144927536234,257.75123097849996,250.28985507246375,249.6776038655333,255.97826086956522,245.44729893362216C261.6666666666667,241.21699400171107,267.3550724637681,240.83001125085548,273.04347826086956,236.0316309594888C278.731884057971,231.23325066812217,284.42028985507244,222.0234728362444,290.1086956521739,249.68238896104995C295.7971014492753,277.34130508585554,301.4855072463768,341.8689151673445,307.17391304347825,373.5176052359389C312.8623188405797,405.1662953045334,318.5507246376812,403.9360653602334,324.2391304347826,405.1947500192834C329.92753623188406,406.4534346783334,335.6159420289855,410.2010339407334,341.30434782608694,412.28513599806666C346.99275362318843,414.3692380554,352.6811594202898,414.7898429076666,358.3695652173913,420.3231037775945C364.05797101449275,425.85636464752224,369.74637681159425,436.5022815351111,375.4347826086957,444.9975107632222C381.1231884057972,453.49273999133334,386.81159420289856,459.83728155996664,392.5,465.6199949380944C398.18840579710144,471.4027083162221,403.8768115942028,476.6235935038444,409.5652173913043,479.22742353509443C415.25362318840575,481.83125356634446,420.94202898550725,481.8180284412222,426.6304347826087,485.28452470957785C432.3188405797102,488.7510209779334,438.00724637681157,495.69723863976674,443.695652173913,502.81621020781614C449.3840579710145,509.9351817758656,455.072463768116,517.2269072501311,460.7608695652175,522.2010301063939C466.4492753623188,527.1751529626566,472.1376811594203,529.8316732009167,477.82608695652175,534.1681988232895C483.5144927536232,538.5047244456623,489.2028985507247,544.5212554521478,494.89130434782606,547.789025359935C500.57971014492756,551.0567952677224,506.268115942029,551.5758040768111,511.9565217391305,552.8251185641606C517.6449275362319,554.07443305151,523.3333333333334,556.05405321712,529.0217391304348,557.3048956990978C534.7101449275361,558.5557381810755,540.3985507246376,559.0778029794211,546.0869565217391,559.387276958455C551.7753623188406,559.6967509374889,557.463768115942,559.7936340972111,563.1521739130435,559.845934643656C568.8405797101449,559.8982351901011,574.5289855072464,559.9059531232689,580.2173913043479,559.9200442460373C585.9057971014493,559.9341353688055,591.5942028985507,559.9545996811745,597.2826086956522,559.968987838435C602.9710144927536,559.9833759956956,608.6594202898551,559.9916879978477,614.3478260869565,559.9958439989239C620.036231884058,560,625.7246376811594,560,631.4130434782609,560C637.1014492753624,560,642.7898550724639,560,648.4782608695652,560C654.1666666666666,560,659.8550724637681,560,665.5434782608695,560C671.231884057971,560,676.9202898550724,560,682.6086956521739,560C688.2971014492754,560,693.9855072463769,560,699.6739130434784,560C705.3623188405796,560,711.0507246376811,560,716.7391304347826,560C722.427536231884,560,728.1159420289855,560,733.804347826087,560C739.4927536231885,560,745.18115942029,560,750.8695652173914,560C756.5579710144929,560,762.2463768115941,560,767.9347826086956,560C773.623188405797,560,779.3115942028985,560,782.1557971014494,560L785,560L785,560L782.1557971014494,560C779.3115942028985,560,773.623188405797,560,767.9347826086956,560C762.2463768115941,560,756.5579710144929,560,750.8695652173914,560C745.18115942029,560,739.4927536231885,560,733.804347826087,560C728.1159420289855,560,722.427536231884,560,716.7391304347826,560C711.0507246376811,560,705.3623188405796,560,699.6739130434781,560C693.9855072463769,560,688.2971014492754,560,682.6086956521739,560C676.9202898550724,560,671.231884057971,560,665.5434782608695,560C659.8550724637681,560,654.1666666666666,560,648.4782608695652,560C642.7898550724639,560,637.1014492753624,560,631.4130434782609,560C625.7246376811594,560,620.036231884058,560,614.3478260869565,560C608.6594202898551,560,602.9710144927536,560,597.2826086956521,560C591.5942028985507,560,585.9057971014493,560,580.2173913043478,560C574.5289855072464,560,568.8405797101449,560,563.1521739130435,560C557.463768115942,560,551.7753623188406,560,546.0869565217391,559.7970171369328C540.3985507246376,559.5940342738655,534.7101449275361,559.1880685477312,529.0217391304348,558.4546425912145C523.3333333333334,557.7212166346977,517.6449275362319,556.6603304477989,511.95652173913044,556.445742454805C506.268115942029,556.2311544618111,500.57971014492756,556.8628646627221,494.8913043478262,555.0510807378238C489.2028985507247,553.2392968129255,483.5144927536232,548.9840187622177,477.82608695652175,547.1288889340067C472.1376811594203,545.2737591057955,466.4492753623188,545.8187775000811,460.76086956521743,545.4263423113683C455.072463768116,545.0339071226555,449.3840579710145,543.7040183509445,443.695652173913,542.1806885229555C438.00724637681157,540.6573586949667,432.3188405797102,538.9405878107,426.63043478260875,539.1116891381834C420.94202898550725,539.2827904656666,415.25362318840575,541.3417640049,409.5652173913043,542.7741959065389C403.8768115942028,544.2066278081778,398.18840579710144,545.0125180722222,392.5,545.5401369538722C386.81159420289856,546.0677558355222,381.1231884057972,546.3171033347778,375.4347826086957,546.360937873C369.74637681159425,546.4047724112223,364.05797101449275,546.2430939884111,358.3695652173913,546.2558801148722C352.6811594202898,546.2686662413333,346.99275362318843,546.4559169170666,341.30434782608694,546.7607453644555C335.6159420289855,547.0655738118444,329.92753623188406,547.4879800308889,324.2391304347826,547.837624930339C318.5507246376812,548.1872698297889,312.8623188405797,548.4641534096445,307.17391304347825,520.9907192763277C301.4855072463768,493.5172851430111,295.7971014492753,438.2935332965222,290.1086956521739,415.2971640482722C284.42028985507244,392.30079480002223,278.731884057971,401.5318081500111,273.04347826086956,406.88493198426664C267.3550724637681,412.23805581852224,261.6666666666667,413.71329013704445,255.97826086956525,415.58526604298885C250.28985507246375,417.45724194893336,244.60144927536234,419.72595944229994,238.91304347826087,424.10426406820557C233.2246376811594,428.4825686941111,227.53623188405797,434.9704604525555,221.84782608695653,439.6108166030556C216.15942028985503,444.2511727535555,210.4710144927536,447.04399329611107,204.78260869565213,447.80034787138896C199.09420289855072,448.55670244666663,193.40579710144928,447.27659105466665,187.71739130434784,465.29876251662773C182.02898550724638,483.3209339785889,176.3405797101449,520.6453882945111,170.65217391304347,539.4793083507334C164.96376811594203,558.3132284069555,159.2753623188406,558.6566142034777,153.58695652173913,558.9949737684055C147.89855072463766,559.3333333333334,142.21014492753622,559.6666666666666,136.52173913043478,559.8333333333334C130.83333333333334,560,125.14492753623188,560,119.45652173913044,560C113.76811594202898,560,108.07971014492755,560,102.39130434782608,560C96.70289855072463,560,91.01449275362319,560,85.32608695652173,560C79.6376811594203,560,73.94927536231883,560,68.26086956521739,560C62.57246376811594,560,56.88405797101449,560,51.19565217391304,560C45.507246376811594,560,39.81884057971015,560,34.130434782608695,560C28.442028985507246,560,22.753623188405797,560,17.065217391304348,560C11.376811594202898,560,5.688405797101449,560,2.8442028985507246,560L0,560Z"><title>Tape</title></path><path fill="#1f77b4" d="M0,560L2.8442028985507246,560C5.688405797101449,560,11.376811594202898,560,17.065217391304348,560C22.753623188405797,560,28.442028985507246,560,34.130434782608695,560C39.81884057971015,560,45.507246376811594,560,51.19565217391304,560C56.88405797101449,560,62.57246376811594,560,68.26086956521739,560C73.94927536231883,560,79.6376811594203,560,85.32608695652173,560C91.01449275362319,560,96.70289855072463,560,102.39130434782608,560C108.07971014492755,560,113.76811594202898,560,119.45652173913044,560C125.14492753623188,560,130.83333333333334,560,136.52173913043478,560C142.21014492753622,560,147.89855072463766,560,153.58695652173913,559.8283071017389C159.2753623188406,559.6566142034777,164.96376811594203,559.3132284069555,170.65217391304347,558.3247481550667C176.3405797101449,557.3362679031778,182.02898550724638,555.7026931959223,187.71739130434784,552.2754145404612C193.40579710144928,548.848135885,199.09420289855072,543.6271532813334,204.78260869565216,536.1783564137778C210.4710144927536,528.7295595462223,216.15942028985503,519.0529484147778,221.8478260869565,499.8176994577778C227.53623188405797,480.58245050077784,233.2246376811594,451.7885637182222,238.91304347826087,436.25726158026106C244.60144927536234,420.72595944229994,250.28985507246375,418.45724194893336,255.97826086956522,416.5852660429889C261.6666666666667,414.71329013704445,267.3550724637681,413.23805581852224,273.04347826086956,407.8849319842666C278.731884057971,402.5318081500111,284.42028985507244,393.30079480002223,290.1086956521739,360.3195361442333C295.7971014492753,327.3382774884444,301.4855072463768,270.6067735268555,307.17391304347825,235.48081931483887C312.8623188405797,200.35486510282217,318.5507246376812,186.83446064037778,324.2391304347826,174.89702022890003C329.92753623188406,162.95957981742228,335.6159420289855,152.60510345691117,341.30434782608694,135.5927940219278C346.99275362318843,118.58048458694445,352.6811594202898,94.91034207748885,358.3695652173913,83.66050527481663C364.05797101449275,72.4106684721444,369.74637681159425,73.58113737625554,375.4347826086957,75.11869795640555C381.1231884057972,76.65625853655557,386.81159420289856,78.56091079274445,392.5,83.13444875159445C398.18840579710144,87.70798671044444,403.8768115942028,94.95041037195557,409.5652173913043,90.74108574681668C415.25362318840575,86.53176112167779,420.94202898550725,70.87068820988891,426.6304347826087,59.634519124411135C432.3188405797102,48.398350038933366,438.00724637681157,41.58708477976672,443.695652173913,42.51885688920505C449.3840579710145,43.45062899864337,455.072463768116,52.12543847668665,460.7608695652175,61.99301150800499C466.4492753623188,71.86058453932333,472.1376811594203,82.9209211239167,477.82608695652175,95.8993583967006C483.5144927536232,108.8777956694845,489.2028985507247,123.77433363045891,494.89130434782606,136.5569791203961C500.57971014492756,149.33962461033332,506.268115942029,160.00837762923334,511.9565217391305,164.4216271013322C517.6449275362319,168.83487657343107,523.3333333333334,166.99262249872882,529.0217391304348,168.48173943495496C534.7101449275361,169.97085637118104,540.3985507246376,174.7913443183355,546.0869565217391,181.77248484549662C551.7753623188406,188.75362537265775,557.463768115942,197.8954184798255,563.1521739130435,209.3778383829483C568.8405797101449,220.86025828607112,574.5289855072464,234.68330498514888,580.2173913043479,252.14778054755996C585.9057971014493,269.61225610997104,591.5942028985507,290.7181605357155,597.2826086956522,305.6761596993994C602.9710144927536,320.6341588630833,608.6594202898551,329.4442527647067,614.3478260869565,338.1609708982378C620.036231884058,346.87768903176885,625.7246376811594,355.5010313972078,631.4130434782609,360.25289802483167C637.1014492753624,365.00476465245555,642.7898550724639,365.8851555422644,648.4782608695652,380.71180618106496C654.1666666666666,395.53845681986553,659.8550724637681,424.3113672076577,665.5434782608695,438.45581220478834C671.231884057971,452.60025720191896,676.9202898550724,452.1162368083878,682.6086956521739,459.88358403049443C688.2971014492754,467.6509312526011,693.9855072463769,483.66964609034557,699.6739130434784,492.7193389461316C705.3623188405796,501.76903180191783,711.0507246376811,503.8497026757456,716.7391304347826,506.2357753147539C722.427536231884,508.62184795376226,728.1159420289855,511.31332235795117,733.804347826087,512.9753809885923C739.4927536231885,514.6374396192333,745.18115942029,515.2700824763266,750.8695652173914,516.8921461591972C756.5579710144929,518.5142098420678,762.2463768115941,521.1256943507155,767.9347826086956,522.5958417628367C773.623188405797,524.0659891749577,779.3115942028985,524.3947994905521,782.1557971014494,524.5592046483495L785,524.7236098061467L785,539.0765208977799L782.1557971014494,539.2891424956789C779.3115942028985,539.5017640935777,773.623188405797,539.9270072893755,767.9347826086956,540.3627226253794C762.2463768115941,540.7984379613835,756.5579710144929,541.2446254375933,750.8695652173914,541.5436308569479C745.18115942029,541.8426362763022,739.4927536231885,541.994459638801,733.804347826087,542.1051366469211C728.1159420289855,542.2158136550411,722.427536231884,542.2853443087822,716.7391304347826,542.687141860081C711.0507246376811,543.08893941138,705.3623188405796,543.8230038602367,699.6739130434781,537.8542544969345C693.9855072463769,531.8855051336323,688.2971014492754,519.2139419581712,682.6086956521739,514.75183001397C676.9202898550724,510.28971806976887,671.231884057971,514.0370573568279,665.5434782608695,504.4679923274844C659.8550724637681,494.89892729814113,654.1666666666666,472.0134579523956,648.4782608695652,461.878324524325C642.7898550724639,451.7431910962544,637.1014492753624,454.3583935858589,631.4130434782609,455.9194125846639C625.7246376811594,457.48043158346894,620.036231884058,457.98726709147445,614.3478260869565,459.09141001871166C608.6594202898551,460.1955529459489,602.9710144927536,461.89700329241776,597.2826086956521,462.71644388254776C591.5942028985507,463.53588447267776,585.9057971014493,463.4733153064689,580.2173913043478,467.00063667281773C574.5289855072464,470.52795803916666,568.8405797101449,477.64516993807337,563.1521739130435,484.0073581737672C557.463768115942,490.36954640946107,551.7753623188406,495.97671098194223,546.0869565217391,503.11977164950554C540.3985507246376,510.26283231706884,534.7101449275361,518.9417890797143,529.0217391304348,524.8229071613605C523.3333333333334,530.7040252430066,517.6449275362319,533.7873046436533,511.95652173913044,535.6326531054489C506.268115942029,537.4780015672444,500.57971014492756,538.0854190901888,494.8913043478262,537.188353989335C489.2028985507247,536.2912888884811,483.5144927536232,533.889741163829,477.82608695652175,531.3607071823727C472.1376811594203,528.8316732009167,466.4492753623188,526.1751529626566,460.76086956521743,521.2010301063939C455.072463768116,516.2269072501311,449.3840579710145,508.9351817758656,443.695652173913,501.8162102078161C438.00724637681157,494.69723863976674,432.3188405797102,487.7510209779334,426.63043478260875,484.28452470957785C420.94202898550725,480.8180284412222,415.25362318840575,480.83125356634446,409.5652173913043,478.2274235350944C403.8768115942028,475.6235935038444,398.18840579710144,470.4027083162221,392.5,464.61999493809435C386.81159420289856,458.83728155996664,381.1231884057972,452.49273999133334,375.4347826086957,443.9975107632222C369.74637681159425,435.5022815351111,364.05797101449275,424.85636464752224,358.3695652173913,419.32310377759444C352.6811594202898,413.7898429076666,346.99275362318843,413.3692380554,341.30434782608694,411.28513599806666C335.6159420289855,409.2010339407334,329.92753623188406,405.4534346783334,324.2391304347826,404.1947500192834C318.5507246376812,402.9360653602334,312.8623188405797,404.1662953045334,307.17391304347825,427.52856609660006C301.4855072463768,450.8908368886667,295.7971014492753,496.3851485285,290.1086956521739,518.1941608620278C284.42028985507244,540.0031731955556,278.731884057971,538.1268862227779,273.04347826086956,534.824780989389C267.3550724637681,531.522675756,261.6666666666667,526.794752262,255.97826086956525,521.8658747885C250.28985507246375,516.936997315,244.60144927536234,511.807165862,238.91304347826087,518.1293610673333C233.2246376811594,524.4515562726666,227.53623188405797,542.2257781363334,221.84782608695653,551.1128890681667C216.15942028985503,560,210.4710144927536,560,204.78260869565213,560C199.09420289855072,560,193.40579710144928,560,187.71739130434784,560C182.02898550724638,560,176.3405797101449,560,170.65217391304347,560C164.96376811594203,560,159.2753623188406,560,153.58695652173913,560C147.89855072463766,560,142.21014492753622,560,136.52173913043478,560C130.83333333333334,560,125.14492753623188,560,119.45652173913044,560C113.76811594202898,560,108.07971014492755,560,102.39130434782608,560C96.70289855072463,560,91.01449275362319,560,85.32608695652173,560C79.6376811594203,560,73.94927536231883,560,68.26086956521739,560C62.57246376811594,560,56.88405797101449,560,51.19565217391304,560C45.507246376811594,560,39.81884057971015,560,34.130434782608695,560C28.442028985507246,560,22.753623188405797,560,17.065217391304348,560C11.376811594202898,560,5.688405797101449,560,2.8442028985507246,560L0,560Z"><title>Disc</title></path><path fill="#ff7f0e" d="M0,560L2.8442028985507246,560C5.688405797101449,560,11.376811594202898,560,17.065217391304348,560C22.753623188405797,560,28.442028985507246,560,34.130434782608695,560C39.81884057971015,560,45.507246376811594,560,51.19565217391304,560C56.88405797101449,560,62.57246376811594,560,68.26086956521739,560C73.94927536231883,560,79.6376811594203,560,85.32608695652173,560C91.01449275362319,560,96.70289855072463,560,102.39130434782608,560C108.07971014492755,560,113.76811594202898,560,119.45652173913044,560C125.14492753623188,560,130.83333333333334,560,136.52173913043478,559.8333333333334C142.21014492753622,559.6666666666666,147.89855072463766,559.3333333333334,153.58695652173913,559.3333333333334C159.2753623188406,559.3333333333334,164.96376811594203,559.6666666666666,170.65217391304347,559.8333333333334C176.3405797101449,560,182.02898550724638,560,187.71739130434784,560C193.40579710144928,560,199.09420289855072,560,204.78260869565216,560C210.4710144927536,560,216.15942028985503,560,221.8478260869565,560C227.53623188405797,560,233.2246376811594,560,238.91304347826087,560C244.60144927536234,560,250.28985507246375,560,255.97826086956522,560C261.6666666666667,560,267.3550724637681,560,273.04347826086956,560C278.731884057971,560,284.42028985507244,560,290.1086956521739,560C295.7971014492753,560,301.4855072463768,560,307.17391304347825,560C312.8623188405797,560,318.5507246376812,560,324.2391304347826,560C329.92753623188406,560,335.6159420289855,560,341.30434782608694,560C346.99275362318843,560,352.6811594202898,560,358.3695652173913,560C364.05797101449275,560,369.74637681159425,560,375.4347826086957,560C381.1231884057972,560,386.81159420289856,560,392.5,560C398.18840579710144,560,403.8768115942028,560,409.5652173913043,560C415.25362318840575,560,420.94202898550725,560,426.6304347826087,560C432.3188405797102,560,438.00724637681157,560,443.695652173913,560C449.3840579710145,560,455.072463768116,560,460.7608695652175,560C466.4492753623188,560,472.1376811594203,560,477.82608695652175,560C483.5144927536232,560,489.2028985507247,560,494.89130434782606,560C500.57971014492756,560,506.268115942029,560,511.9565217391305,558.1668271667661C517.6449275362319,556.3336543335322,523.3333333333334,552.6673086670644,529.0217391304348,543.0979545928016C534.7101449275361,533.5286005185388,540.3985507246376,518.056238036481,546.0869565217391,507.5164745092117C551.7753623188406,496.97671098194223,557.463768115942,491.36954640946107,563.1521739130435,485.0073581737672C568.8405797101449,478.64516993807337,574.5289855072464,471.52795803916666,580.2173913043479,468.0006366728178C585.9057971014493,464.4733153064689,591.5942028985507,464.53588447267776,597.2826086956522,463.71644388254776C602.9710144927536,462.89700329241776,608.6594202898551,461.1955529459489,614.3478260869565,460.09141001871166C620.036231884058,458.98726709147445,625.7246376811594,458.48043158346894,631.4130434782609,456.9194125846639C637.1014492753624,455.3583935858589,642.7898550724639,452.7431910962544,648.4782608695652,438.70032415570773C654.1666666666666,424.65745721516106,659.8550724637681,399.1869258236722,665.5434782608695,386.8076070568566C671.231884057971,374.4282882900411,676.9202898550724,375.1401821478989,682.6086956521739,377.4050118532889C688.2971014492754,379.66984155867885,693.9855072463769,383.4876071116011,699.6739130434784,395.3080361868583C705.3623188405796,407.1284652621155,711.0507246376811,426.95155785970775,716.7391304347826,440.2523418543612C722.427536231884,453.5531258490144,728.1159420289855,460.33160124072884,733.804347826087,465.99883023096453C739.4927536231885,471.6660592212,745.18115942029,476.2220418099567,750.8695652173914,481.3869805299234C756.5579710144929,486.55191924989003,762.2463768115941,492.32581410106667,767.9347826086956,496.1617558042033C773.623188405797,499.99769750734004,779.3115942028985,501.89568606243665,782.1557971014494,502.84468033998496L785,503.7936746175333L785,523.7236098061467L782.1557971014494,523.5592046483495C779.3115942028985,523.3947994905521,773.623188405797,523.0659891749577,767.9347826086956,521.5958417628367C762.2463768115941,520.1256943507155,756.5579710144929,517.5142098420678,750.8695652173914,515.8921461591972C745.18115942029,514.2700824763266,739.4927536231885,513.6374396192333,733.804347826087,511.97538098859224C728.1159420289855,510.31332235795117,722.427536231884,507.62184795376226,716.7391304347826,497.3942967371983C711.0507246376811,487.1667455206345,705.3623188405796,469.4031174916956,699.6739130434781,460.3534246359095C693.9855072463769,451.3037317801233,688.2971014492754,450.96797409749,682.6086956521739,451.04210545293887C676.9202898550724,451.1162368083878,671.231884057971,451.60025720191896,665.5434782608695,464.34206283150667C659.8550724637681,477.0838684610944,654.1666666666666,502.0834593267389,648.4782608695652,515.3455120815023C642.7898550724639,528.6075648362656,637.1014492753624,530.1320794801478,631.4130434782609,531.194404199536C625.7246376811594,532.2567289189245,620.036231884058,532.8568637138188,614.3478260869565,534.0833995146505C608.6594202898551,535.3099353154822,602.9710144927536,537.1628721222511,597.2826086956521,537.1292392049255C591.5942028985507,537.0956062876,585.9057971014493,535.17540364618,580.2173913043478,534.4370633672955C574.5289855072464,533.6987230884112,568.8405797101449,534.1422451720622,563.1521739130435,533.7357292636894C557.463768115942,533.3292133553167,551.7753623188406,532.07265945492,546.0869565217391,535.4409923747838C540.3985507246376,538.8093252946478,534.7101449275361,546.8025450347722,529.0217391304348,551.6665274423516C523.3333333333334,556.530509849931,517.6449275362319,558.2652549249656,511.95652173913044,559.1326274624828C506.268115942029,560,500.57971014492756,560,494.8913043478262,560C489.2028985507247,560,483.5144927536232,560,477.82608695652175,560C472.1376811594203,560,466.4492753623188,560,460.76086956521743,560C455.072463768116,560,449.3840579710145,560,443.695652173913,560C438.00724637681157,560,432.3188405797102,560,426.63043478260875,560C420.94202898550725,560,415.25362318840575,560,409.5652173913043,560C403.8768115942028,560,398.18840579710144,560,392.5,560C386.81159420289856,560,381.1231884057972,560,375.4347826086957,560C369.74637681159425,560,364.05797101449275,560,358.3695652173913,560C352.6811594202898,560,346.99275362318843,560,341.30434782608694,560C335.6159420289855,560,329.92753623188406,560,324.2391304347826,560C318.5507246376812,560,312.8623188405797,560,307.17391304347825,560C301.4855072463768,560,295.7971014492753,560,290.1086956521739,560C284.42028985507244,560,278.731884057971,560,273.04347826086956,560C267.3550724637681,560,261.6666666666667,560,255.97826086956525,560C250.28985507246375,560,244.60144927536234,560,238.91304347826087,560C233.2246376811594,560,227.53623188405797,560,221.84782608695653,560C216.15942028985503,560,210.4710144927536,560,204.78260869565213,560C199.09420289855072,560,193.40579710144928,560,187.71739130434784,560C182.02898550724638,560,176.3405797101449,560,170.65217391304347,559.8333333333334C164.96376811594203,559.6666666666666,159.2753623188406,559.3333333333334,153.58695652173913,559.3333333333334C147.89855072463766,559.3333333333334,142.21014492753622,559.6666666666666,136.52173913043478,559.8333333333334C130.83333333333334,560,125.14492753623188,560,119.45652173913044,560C113.76811594202898,560,108.07971014492755,560,102.39130434782608,560C96.70289855072463,560,91.01449275362319,560,85.32608695652173,560C79.6376811594203,560,73.94927536231883,560,68.26086956521739,560C62.57246376811594,560,56.88405797101449,560,51.19565217391304,560C45.507246376811594,560,39.81884057971015,560,34.130434782608695,560C28.442028985507246,560,22.753623188405797,560,17.065217391304348,560C11.376811594202898,560,5.688405797101449,560,2.8442028985507246,560L0,560Z"><title>Download</title></path><path fill="#2ca02c" d="M0,560L2.8442028985507246,560C5.688405797101449,560,11.376811594202898,560,17.065217391304348,560C22.753623188405797,560,28.442028985507246,560,34.130434782608695,560C39.81884057971015,560,45.507246376811594,560,51.19565217391304,560C56.88405797101449,560,62.57246376811594,560,68.26086956521739,560C73.94927536231883,560,79.6376811594203,560,85.32608695652173,560C91.01449275362319,560,96.70289855072463,560,102.39130434782608,560C108.07971014492755,560,113.76811594202898,560,119.45652173913044,560C125.14492753623188,560,130.83333333333334,560,136.52173913043478,559.8333333333334C142.21014492753622,559.6666666666666,147.89855072463766,559.3333333333334,153.58695652173913,559.3333333333334C159.2753623188406,559.3333333333334,164.96376811594203,559.6666666666666,170.65217391304347,559.8333333333334C176.3405797101449,560,182.02898550724638,560,187.71739130434784,560C193.40579710144928,560,199.09420289855072,560,204.78260869565216,560C210.4710144927536,560,216.15942028985503,560,221.8478260869565,560C227.53623188405797,560,233.2246376811594,560,238.91304347826087,560C244.60144927536234,560,250.28985507246375,560,255.97826086956522,559.0747324166667C261.6666666666667,558.1494648333334,267.3550724637681,556.2989296666666,273.04347826086956,554.9882610121111C278.731884057971,553.6775923575556,284.42028985507244,552.9067902151111,290.1086956521739,552.1222306300277C295.7971014492753,551.3376710449444,301.4855072463768,550.5393540172222,307.17391304347825,550.0017537134333C312.8623188405797,549.4641534096445,318.5507246376812,549.1872698297889,324.2391304347826,548.8376249303388C329.92753623188406,548.4879800308889,335.6159420289855,548.0655738118444,341.30434782608694,547.7607453644555C346.99275362318843,547.4559169170666,352.6811594202898,547.2686662413333,358.3695652173913,547.2558801148722C364.05797101449275,547.2430939884111,369.74637681159425,547.4047724112223,375.4347826086957,547.360937873C381.1231884057972,547.3171033347778,386.81159420289856,547.0677558355222,392.5,546.5401369538722C398.18840579710144,546.0125180722222,403.8768115942028,545.2066278081778,409.5652173913043,543.7741959065389C415.25362318840575,542.3417640049,420.94202898550725,540.2827904656666,426.6304347826087,540.1116891381834C432.3188405797102,539.9405878107,438.00724637681157,541.6573586949667,443.695652173913,543.1806885229556C449.3840579710145,544.7040183509445,455.072463768116,546.0339071226555,460.7608695652175,546.4263423113683C466.4492753623188,546.8187775000811,472.1376811594203,546.2737591057955,477.82608695652175,544.9952658922566C483.5144927536232,543.7167726787178,489.2028985507247,541.7048046459255,494.89130434782606,540.3951118680571C500.57971014492756,539.0854190901888,506.268115942029,538.4780015672444,511.9565217391305,536.6326531054489C517.6449275362319,534.7873046436533,523.3333333333334,531.7040252430066,529.0217391304348,530.6949454947105C534.7101449275361,529.6858657464144,540.3985507246376,530.7509856504689,546.0869565217391,531.9118225526945C551.7753623188406,533.07265945492,557.463768115942,534.3292133553167,563.1521739130435,534.7357292636894C568.8405797101449,535.1422451720622,574.5289855072464,534.6987230884112,580.2173913043479,537.0878841965177C585.9057971014493,539.4770453046244,591.5942028985507,544.698889604489,597.2826086956522,544.7325225218144C602.9710144927536,544.7661554391401,608.6594202898551,539.6115769739267,614.3478260869565,539.005542334484C620.036231884058,538.399507695041,625.7246376811594,542.342016881369,631.4130434782609,544.3352455103694C637.1014492753624,546.32847413937,642.7898550724639,546.3724222110433,648.4782608695652,546.4281939385195C654.1666666666666,546.4839656659956,659.8550724637681,546.5515610492744,665.5434782608695,546.4472103568844C671.231884057971,546.3428596644944,676.9202898550724,546.0665628964356,682.6086956521739,545.8895482091922C688.2971014492754,545.7125335219489,693.9855072463769,545.6348009155212,699.6739130434784,546.8181384279183C705.3623188405796,548.0014759403156,711.0507246376811,550.4458835715377,716.7391304347826,551.703332362886C722.427536231884,552.9607811542345,728.1159420289855,553.0312711057089,733.804347826087,553.0985037708939C739.4927536231885,553.1657364360789,745.18115942029,553.2297118149745,750.8695652173914,553.1189293215444C756.5579710144929,553.0081468281145,762.2463768115941,552.7226064623588,767.9347826086956,552.6479087826822C773.623188405797,552.5732111030055,779.3115942028985,552.7093561094077,782.1557971014494,552.7774286126088L785,552.84550111581L785,560L782.1557971014494,560C779.3115942028985,560,773.623188405797,560,767.9347826086956,560C762.2463768115941,560,756.5579710144929,560,750.8695652173914,560C745.18115942029,560,739.4927536231885,560,733.804347826087,560C728.1159420289855,560,722.427536231884,560,716.7391304347826,558.7861525196216C711.0507246376811,557.5723050392434,705.3623188405796,555.1446100784866,699.6739130434781,554.0658306423228C693.9855072463769,552.9870512061589,688.2971014492754,553.2571872945878,682.6086956521739,553.5878424334617C676.9202898550724,553.9184975723356,671.231884057971,554.3096717616545,665.5434782608695,554.6737093342828C659.8550724637681,555.0377469069111,654.1666666666666,555.374647862849,648.4782608695652,555.67534908895C642.7898550724639,555.9760503150511,637.1014492753624,556.2405518113156,631.4130434782609,554.638494210815C625.7246376811594,553.0364366103145,620.036231884058,549.5678199130489,614.3478260869565,549.537602067115C608.6594202898551,549.507384221181,602.9710144927536,552.9155652265789,597.2826086956521,553.2930693594194C591.5942028985507,553.6705734922599,585.9057971014493,551.0174007525433,580.2173913043478,549.8069466523417C574.5289855072464,548.5964925521399,568.8405797101449,548.8287570914534,563.1521739130435,549.1984877928711C557.463768115942,549.5682184942889,551.7753623188406,550.075415357811,546.0869565217391,549.8987389194494C540.3985507246376,549.7220624810877,534.7101449275361,548.8615127408422,529.0217391304348,548.94687951827C523.3333333333334,549.0322462956977,517.6449275362319,550.0635295907989,511.95652173913044,550.3196668338051C506.268115942029,550.5758040768111,500.57971014492756,550.0567952677224,494.8913043478262,551.0442291411445C489.2028985507247,552.0316630145667,483.5144927536232,554.5255395705,477.82608695652175,555.7907983314557C472.1376811594203,557.0560570924112,466.4492753623188,557.0926980583889,460.76086956521743,557.0665226605778C455.072463768116,557.0403472627667,449.3840579710145,556.9513555011667,443.695652173913,556.8989910206222C438.00724637681157,556.8466265400779,432.3188405797102,556.8308893405889,426.63043478260875,556.7603591046278C420.94202898550725,556.6898288686667,415.25362318840575,556.5645055962333,409.5652173913043,556.3944666224278C403.8768115942028,556.2244276486222,398.18840579710144,556.0096729734445,392.5,555.9680696487055C386.81159420289856,555.9264663239667,381.1231884057972,556.0580143496667,375.4347826086957,556.1561324987778C369.74637681159425,556.2542506478889,364.05797101449275,556.3189389204111,358.3695652173913,556.3621348174834C352.6811594202898,556.4053307145556,346.99275362318843,556.4270342361777,341.30434782608694,556.2968931547889C335.6159420289855,556.1667520734001,329.92753623188406,555.884766389,324.2391304347826,555.6289130217277C318.5507246376812,555.3730596544556,312.8623188405797,555.1433386043111,307.17391304347825,555.8762084868778C301.4855072463768,556.6090783694444,295.7971014492753,558.3045391847222,290.1086956521739,559.1522695923611C284.42028985507244,560,278.731884057971,560,273.04347826086956,560C267.3550724637681,560,261.6666666666667,560,255.97826086956525,560C250.28985507246375,560,244.60144927536234,560,238.91304347826087,560C233.2246376811594,560,227.53623188405797,560,221.84782608695653,560C216.15942028985503,560,210.4710144927536,560,204.78260869565213,560C199.09420289855072,560,193.40579710144928,560,187.71739130434784,560C182.02898550724638,560,176.3405797101449,560,170.65217391304347,559.8333333333334C164.96376811594203,559.6666666666666,159.2753623188406,559.3333333333334,153.58695652173913,559.3333333333334C147.89855072463766,559.3333333333334,142.21014492753622,559.6666666666666,136.52173913043478,559.8333333333334C130.83333333333334,560,125.14492753623188,560,119.45652173913044,560C113.76811594202898,560,108.07971014492755,560,102.39130434782608,560C96.70289855072463,560,91.01449275362319,560,85.32608695652173,560C79.6376811594203,560,73.94927536231883,560,68.26086956521739,560C62.57246376811594,560,56.88405797101449,560,51.19565217391304,560C45.507246376811594,560,39.81884057971015,560,34.130434782608695,560C28.442028985507246,560,22.753623188405797,560,17.065217391304348,560C11.376811594202898,560,5.688405797101449,560,2.8442028985507246,560L0,560Z"><title>Other</title></path><path fill="#d62728" d="M0,560L2.8442028985507246,560C5.688405797101449,560,11.376811594202898,560,17.065217391304348,560C22.753623188405797,560,28.442028985507246,560,34.130434782608695,560C39.81884057971015,560,45.507246376811594,560,51.19565217391304,560C56.88405797101449,560,62.57246376811594,560,68.26086956521739,560C73.94927536231883,560,79.6376811594203,560,85.32608695652173,560C91.01449275362319,560,96.70289855072463,560,102.39130434782608,560C108.07971014492755,560,113.76811594202898,560,119.45652173913044,560C125.14492753623188,560,130.83333333333334,560,136.52173913043478,559.8333333333334C142.21014492753622,559.6666666666666,147.89855072463766,559.3333333333334,153.58695652173913,559.3333333333334C159.2753623188406,559.3333333333334,164.96376811594203,559.6666666666666,170.65217391304347,559.8333333333334C176.3405797101449,560,182.02898550724638,560,187.71739130434784,560C193.40579710144928,560,199.09420289855072,560,204.78260869565216,560C210.4710144927536,560,216.15942028985503,560,221.8478260869565,560C227.53623188405797,560,233.2246376811594,560,238.91304347826087,559.8333333333334C244.60144927536234,559.6666666666666,250.28985507246375,559.3333333333334,255.97826086956522,559.3333333333334C261.6666666666667,559.3333333333334,267.3550724637681,559.6666666666666,273.04347826086956,559.8333333333334C278.731884057971,560,284.42028985507244,560,290.1086956521739,560C295.7971014492753,560,301.4855072463768,560,307.17391304347825,560C312.8623188405797,560,318.5507246376812,560,324.2391304347826,560C329.92753623188406,560,335.6159420289855,560,341.30434782608694,560C346.99275362318843,560,352.6811594202898,560,358.3695652173913,560C364.05797101449275,560,369.74637681159425,560,375.4347826086957,560C381.1231884057972,560,386.81159420289856,560,392.5,560C398.18840579710144,560,403.8768115942028,560,409.5652173913043,560C415.25362318840575,560,420.94202898550725,560,426.6304347826087,560C432.3188405797102,560,438.00724637681157,560,443.695652173913,560C449.3840579710145,560,455.072463768116,560,460.7608695652175,560C466.4492753623188,560,472.1376811594203,560,477.82608695652175,560C483.5144927536232,560,489.2028985507247,560,494.89130434782606,559.8333333333334C500.57971014492756,559.6666666666666,506.268115942029,559.3333333333334,511.9565217391305,559.2970171369328C517.6449275362319,559.2607009405323,523.3333333333334,559.5214018810644,529.0217391304348,558.28517058462C534.7101449275361,557.0489392881756,540.3985507246376,554.3157757547544,546.0869565217391,552.6955955562828C551.7753623188406,551.075415357811,557.463768115942,550.5682184942889,563.1521739130435,550.1984877928711C568.8405797101449,549.8287570914534,574.5289855072464,549.5964925521399,580.2173913043479,547.9222904351823C585.9057971014493,546.2480883182244,591.5942028985507,543.1319486236222,597.2826086956522,542.7544444907817C602.9710144927536,542.3769403579412,608.6594202898551,544.7380717868622,614.3478260869565,543.5115359860305C620.036231884058,542.2850001851989,625.7246376811594,537.4707971546144,631.4130434782609,534.3014383173811C637.1014492753624,531.1320794801478,642.7898550724639,529.6075648362656,648.4782608695652,527.2955319229084C654.1666666666666,524.9834990095511,659.8550724637681,521.8839478267189,665.5434782608695,518.4605025917733C671.231884057971,515.0370573568279,676.9202898550724,511.28971806976887,682.6086956521739,500.2655668729139C688.2971014492754,489.2414156760589,693.9855072463769,470.9404525694078,699.6739130434784,450.86666813550613C705.3623188405796,430.79288370160447,711.0507246376811,408.94627794045226,716.7391304347826,394.77867813014444C722.427536231884,380.6110783198367,728.1159420289855,374.1224844603733,733.804347826087,366.5931395639978C739.4927536231885,359.06379466762223,745.18115942029,350.49369873433443,750.8695652173914,342.90368915839C756.5579710144929,335.31367958244556,762.2463768115941,328.70375636384443,767.9347826086956,321.1714500904256C773.623188405797,313.6391438170067,779.3115942028985,305.18445448877,782.1557971014494,300.95710982465164L785,296.7297651605333L785,502.7936746175333L782.1557971014494,501.844680339985C779.3115942028985,500.89568606243665,773.623188405797,498.99769750734004,767.9347826086956,495.1617558042033C762.2463768115941,491.32581410106667,756.5579710144929,485.55191924989003,750.8695652173914,480.3869805299234C745.18115942029,475.2220418099567,739.4927536231885,470.6660592212,733.804347826087,464.9988302309644C728.1159420289855,459.33160124072884,722.427536231884,452.5531258490144,716.7391304347826,457.9828398982889C711.0507246376811,463.41255394756337,705.3623188405796,481.05045743782665,699.6739130434781,497.55306004967275C693.9855072463769,514.0556626615189,688.2971014492754,529.4229643949478,682.6086956521739,537.2447636456916C676.9202898550724,545.0665628964356,671.231884057971,545.3428596644944,665.5434782608695,545.4472103568844C659.8550724637681,545.5515610492744,654.1666666666666,545.4839656659956,648.4782608695652,545.4281939385195C642.7898550724639,545.3724222110433,637.1014492753624,545.32847413937,631.4130434782609,547.2851605459367C625.7246376811594,549.2418469525034,620.036231884058,553.19916783731,614.3478260869565,553.8052024767528C608.6594202898551,554.4112371161956,602.9710144927536,551.6659855102745,597.2826086956521,551.6631687558984C591.5942028985507,551.6603520015223,585.9057971014493,554.3999700986911,580.2173913043478,555.7686836204267C574.5289855072464,557.1373971421623,568.8405797101449,557.1352060884645,563.1521739130435,557.0724330558268C557.463768115942,557.009660023189,551.7753623188406,556.8863050116112,546.0869565217391,557.36413583915C540.3985507246376,557.8419666666889,534.7101449275361,558.9209833333445,529.0217391304348,559.2938250000055C523.3333333333334,559.6666666666666,517.6449275362319,559.3333333333334,511.95652173913044,559.3333333333334C506.268115942029,559.3333333333334,500.57971014492756,559.6666666666666,494.8913043478262,559.8333333333334C489.2028985507247,560,483.5144927536232,560,477.82608695652175,560C472.1376811594203,560,466.4492753623188,560,460.76086956521743,560C455.072463768116,560,449.3840579710145,560,443.695652173913,560C438.00724637681157,560,432.3188405797102,560,426.63043478260875,560C420.94202898550725,560,415.25362318840575,560,409.5652173913043,560C403.8768115942028,560,398.18840579710144,560,392.5,560C386.81159420289856,560,381.1231884057972,560,375.4347826086957,560C369.74637681159425,560,364.05797101449275,560,358.3695652173913,560C352.6811594202898,560,346.99275362318843,560,341.30434782608694,560C335.6159420289855,560,329.92753623188406,560,324.2391304347826,560C318.5507246376812,560,312.8623188405797,560,307.17391304347825,560C301.4855072463768,560,295.7971014492753,560,290.1086956521739,560C284.42028985507244,560,278.731884057971,560,273.04347826086956,559.8333333333334C267.3550724637681,559.6666666666666,261.6666666666667,559.3333333333334,255.97826086956525,559.3333333333334C250.28985507246375,559.3333333333334,244.60144927536234,559.6666666666666,238.91304347826087,559.8333333333334C233.2246376811594,560,227.53623188405797,560,221.84782608695653,560C216.15942028985503,560,210.4710144927536,560,204.78260869565213,560C199.09420289855072,560,193.40579710144928,560,187.71739130434784,560C182.02898550724638,560,176.3405797101449,560,170.65217391304347,559.8333333333334C164.96376811594203,559.6666666666666,159.2753623188406,559.3333333333334,153.58695652173913,559.3333333333334C147.89855072463766,559.3333333333334,142.21014492753622,559.6666666666666,136.52173913043478,559.8333333333334C130.83333333333334,560,125.14492753623188,560,119.45652173913044,560C113.76811594202898,560,108.07971014492755,560,102.39130434782608,560C96.70289855072463,560,91.01449275362319,560,85.32608695652173,560C79.6376811594203,560,73.94927536231883,560,68.26086956521739,560C62.57246376811594,560,56.88405797101449,560,51.19565217391304,560C45.507246376811594,560,39.81884057971015,560,34.130434782608695,560C28.442028985507246,560,22.753623188405797,560,17.065217391304348,560C11.376811594202898,560,5.688405797101449,560,2.8442028985507246,560L0,560Z"><title>Streaming</title></path><path fill="#8c564b" d="M0,288.0611603943L2.8442028985507246,288.85679389990554C5.688405797101449,289.6524274055111,11.376811594202898,291.24369441672224,17.065217391304348,292.2607912752C22.753623188405797,293.2778881336778,28.442028985507246,293.7208148394222,34.130434782608695,290.25592307194444C39.81884057971015,286.7910313044667,45.507246376811594,279.41832106376665,51.19565217391304,266.1225289829055C56.88405797101449,252.82673690204442,62.57246376811594,233.6078629810222,68.26086956521739,218.43470810551108C73.94927536231883,203.26155322999998,79.6376811594203,192.1341174,85.32608695652173,199.2351022C91.01449275362319,206.336087,96.70289855072463,231.66549242999997,102.39130434782608,250.23811455633333C108.07971014492755,268.8107366826667,113.76811594202898,280.6265755053334,119.45652173913044,287.49610043644446C125.14492753623188,294.3656253675556,130.83333333333334,296.28883640711115,136.52173913043478,303.1636387880333C142.21014492753622,310.03844116895556,147.89855072463766,321.86483489124447,153.58695652173913,327.3664322183167C159.2753623188406,332.8680295453889,164.96376811594203,332.0448304772445,170.65217391304347,350.9290389854334C176.3405797101449,369.8132474936222,182.02898550724638,408.40486357814444,187.71739130434784,428.34072731640555C193.40579710144928,448.27659105466665,199.09420289855072,449.55670244666663,204.78260869565216,448.80034787138896C210.4710144927536,448.04399329611107,216.15942028985503,445.2511727535555,221.8478260869565,454.72459284861117C227.53623188405797,464.1980129436667,233.2246376811594,485.93767367633336,238.91304347826087,499.3724197691667C244.60144927536234,512.807165862,250.28985507246375,517.936997315,255.97826086956522,522.8658747885C261.6666666666667,527.794752262,267.3550724637681,532.522675756,273.04347826086956,535.824780989389C278.731884057971,539.1268862227779,284.42028985507244,541.0031731955556,290.1086956521739,544.1136762462501C295.7971014492753,547.2241792969445,301.4855072463768,551.5688984255556,307.17391304347825,553.8561185149333C312.8623188405797,556.1433386043111,318.5507246376812,556.3730596544556,324.2391304347826,556.6289130217278C329.92753623188406,556.884766389,335.6159420289855,557.1667520734001,341.30434782608694,557.2968931547889C346.99275362318843,557.4270342361777,352.6811594202898,557.4053307145556,358.3695652173913,557.3621348174833C364.05797101449275,557.3189389204111,369.74637681159425,557.2542506478889,375.4347826086957,557.1561324987778C381.1231884057972,557.0580143496667,386.81159420289856,556.9264663239667,392.5,556.9680696487056C398.18840579710144,557.0096729734445,403.8768115942028,557.2244276486222,409.5652173913043,557.3944666224278C415.25362318840575,557.5645055962333,420.94202898550725,557.6898288686667,426.6304347826087,557.7603591046278C432.3188405797102,557.8308893405889,438.00724637681157,557.8466265400779,443.695652173913,557.8989910206222C449.3840579710145,557.9513555011667,455.072463768116,558.0403472627667,460.7608695652175,558.0665226605778C466.4492753623188,558.0926980583889,472.1376811594203,558.0560570924112,477.82608695652175,558.1169297322889C483.5144927536232,558.1778023721666,489.2028985507247,558.3361886179,494.89130434782606,558.0995266403111C500.57971014492756,557.8628646627221,506.268115942029,557.2311544618111,511.9565217391305,556.781352780355C517.6449275362319,556.3315510988988,523.3333333333334,556.0636579368978,529.0217391304348,556.2575755600866C534.7101449275361,556.4514931832755,540.3985507246376,557.1072215916544,546.0869565217391,557.4967633016328C551.7753623188406,557.8863050116112,557.463768115942,558.009660023189,563.1521739130435,558.0724330558268C568.8405797101449,558.1352060884645,574.5289855072464,558.1373971421623,580.2173913043479,558.002519008364C585.9057971014493,557.8676408745656,591.5942028985507,557.5956935532712,597.2826086956522,557.5985103076472C602.9710144927536,557.6013270620233,608.6594202898551,557.8789078920701,614.3478260869565,557.9091257380039C620.036231884058,557.9393435839378,625.7246376811594,557.7221984457589,631.4130434782609,557.4813751285373C637.1014492753624,557.2405518113156,642.7898550724639,556.9760503150511,648.4782608695652,556.67534908895C654.1666666666666,556.374647862849,659.8550724637681,556.0377469069111,665.5434782608695,555.6737093342828C671.231884057971,555.3096717616545,676.9202898550724,554.9184975723356,682.6086956521739,554.5878424334617C688.2971014492754,554.2571872945878,693.9855072463769,553.9870512061589,699.6739130434784,552.12497646941C705.3623188405796,550.2629017326611,711.0507246376811,546.8088883475922,716.7391304347826,545.0471163281873C722.427536231884,543.2853443087822,728.1159420289855,543.2158136550411,733.804347826087,543.1051366469211C739.4927536231885,542.994459638801,745.18115942029,542.8426362763022,750.8695652173914,542.5436308569479C756.5579710144929,542.2446254375933,762.2463768115941,541.7984379613835,767.9347826086956,541.3627226253794C773.623188405797,540.9270072893755,779.3115942028985,540.5017640935777,782.1557971014494,540.2891424956789L785,540.0765208977799L785,551.84550111581L782.1557971014494,551.7774286126088C779.3115942028985,551.7093561094077,773.623188405797,551.5732111030055,767.9347826086956,551.6479087826822C762.2463768115941,551.7226064623588,756.5579710144929,552.0081468281145,750.8695652173914,552.1189293215444C745.18115942029,552.2297118149745,739.4927536231885,552.1657364360789,733.804347826087,552.0985037708939C728.1159420289855,552.0312711057089,722.427536231884,551.9607811542345,716.7391304347826,553.2771543113705C711.0507246376811,554.5935274685066,705.3623188405796,557.2967637342533,699.6739130434781,558.6483818671267C693.9855072463769,560,688.2971014492754,560,682.6086956521739,560C676.9202898550724,560,671.231884057971,560,665.5434782608695,560C659.8550724637681,560,654.1666666666666,560,648.4782608695652,560C642.7898550724639,560,637.1014492753624,560,631.4130434782609,560C625.7246376811594,560,620.036231884058,560,614.3478260869565,559.8291773322572C608.6594202898551,559.6583546645144,602.9710144927536,559.3167093290289,597.2826086956521,559.1356545051017C591.5942028985507,558.9545996811745,585.9057971014493,558.9341353688055,580.2173913043478,558.9200442460373C574.5289855072464,558.9059531232689,568.8405797101449,558.8982351901011,563.1521739130435,558.845934643656C557.463768115942,558.7936340972111,551.7753623188406,558.6967509374889,546.0869565217391,558.387276958455C540.3985507246376,558.0778029794211,534.7101449275361,557.5557381810755,529.0217391304348,557.4557602181144C523.3333333333334,557.3557822551533,517.6449275362319,557.6778911275766,511.95652173913044,558.1722788971216C506.268115942029,558.6666666666666,500.57971014492756,559.3333333333334,494.8913043478262,559.6666666666666C489.2028985507247,560,483.5144927536232,560,477.82608695652175,560C472.1376811594203,560,466.4492753623188,560,460.76086956521743,560C455.072463768116,560,449.3840579710145,560,443.695652173913,560C438.00724637681157,560,432.3188405797102,560,426.63043478260875,560C420.94202898550725,560,415.25362318840575,560,409.5652173913043,560C403.8768115942028,560,398.18840579710144,560,392.5,560C386.81159420289856,560,381.1231884057972,560,375.4347826086957,560C369.74637681159425,560,364.05797101449275,560,358.3695652173913,560C352.6811594202898,560,346.99275362318843,560,341.30434782608694,560C335.6159420289855,560,329.92753623188406,560,324.2391304347826,560C318.5507246376812,560,312.8623188405797,560,307.17391304347825,558.5226646787778C301.4855072463768,557.0453293575556,295.7971014492753,554.0906587151111,290.1086956521739,552.9987244651111C284.42028985507244,551.9067902151111,278.731884057971,552.6775923575556,273.04347826086956,553.9882610121111C267.3550724637681,555.2989296666666,261.6666666666667,557.1494648333334,255.97826086956525,558.2413990833334C250.28985507246375,559.3333333333334,244.60144927536234,559.6666666666666,238.91304347826087,551.2293895472222C233.2246376811594,542.7921124277779,227.53623188405797,525.5842248555556,221.84782608695653,521.8185866351668C216.15942028985503,518.0529484147778,210.4710144927536,527.7295595462223,204.78260869565213,535.1783564137778C199.09420289855072,542.6271532813334,193.40579710144928,547.848135885,187.71739130434784,533.0320810449057C182.02898550724638,518.2160262048111,176.3405797101449,483.3629339209556,170.65217391304347,469.5495985157111C164.96376811594203,455.7362631104667,159.2753623188406,462.9626845838334,153.58695652173913,466.3298543329278C147.89855072463766,469.6970240820222,142.21014492753622,469.2049421068444,136.52173913043478,469.14169595175554C130.83333333333334,469.0784497966667,125.14492753623188,469.4440394616666,119.45652173913044,467.1697062136111C113.76811594202898,464.8953729655555,108.07971014492755,459.9811168044444,102.39130434782608,453.5314079794444C96.70289855072463,447.0816991544444,91.01449275362319,439.09653766555556,85.32608695652173,439.0182077627778C79.6376811594203,438.93987785999997,73.94927536231883,446.76837954333337,68.26086956521739,453.59791710884446C62.57246376811594,460.4274546743556,56.88405797101449,466.25802812204444,51.19565217391304,470.8704179306833C45.507246376811594,475.4828077393222,39.81884057971015,478.8770139089111,34.130434782608695,480.2598977530556C28.442028985507246,481.6427815972,22.753623188405797,481.0143431159,17.065217391304348,480.8014573457556C11.376811594202898,480.58857157561107,5.688405797101449,480.7912385166222,2.8442028985507246,480.89257198712784L0,480.99390545763333Z"><title>Vinyl</title></path></g><g id="xAxis" transform="translate(0,560)" fill="none" font-size="10" font-family="sans-serif" text-anchor="middle"><path class="domain" stroke="currentColor" d="M0,0H785"/><g class="tick" opacity="1" transform="translate(34.130434782608695,0)"><line stroke="currentColor" y2="6"/><text fill="currentColor" y="9" dy="0.71em">1,975</text></g><g class="tick" opacity="1" transform="translate(119.45652173913044,0)"><line stroke="currentColor" y2="6"/><text fill="currentColor" y="9" dy="0.71em">1,980</text></g><g class="tick" opacity="1" transform="translate(204.78260869565216,0)"><line stroke="currentColor" y2="6"/><text fill="currentColor" y="9" dy="0.71em">1,985</text></g><g class="tick" opacity="1" transform="translate(290.1086956521739,0)"><line stroke="currentColor" y2="6"/><text fill="currentColor" y="9" dy="0.71em">1,990</text></g><g class="tick" opacity="1" transform="translate(375.4347826086957,0)"><line stroke="currentColor" y2="6"/><text fill="currentColor" y="9" dy="0.71em">1,995</text></g><g class="tick" opacity="1" transform="translate(460.76086956521743,0)"><line stroke="currentColor" y2="6"/><text fill="currentColor" y="9" dy="0.71em">2,000</text></g><g class="tick" opacity="1" transform="translate(546.0869565217391,0)"><line stroke="currentColor" y2="6"/><text fill="currentColor" y="9" dy="0.71em">2,005</text></g><g class="tick" opacity="1" transform="translate(631.4130434782609,0)"><line stroke="currentColor" y2="6"/><text fill="currentColor" y="9" dy="0.71em">2,010</text></g><g class="tick" opacity="1" transform="translate(716.7391304347826,0)"><line stroke="currentColor" y2="6"/><text fill="currentColor" y="9" dy="0.71em">2,015</text></g></g><text y="556" x="785" text-anchor="end" style="font-family: Arial, sans-serif; font-size: 12px; fill: rgb(123, 123, 123); font-weight: bold;">Year</text><text x="4" text-anchor="start" dominant-baseline="hanging" style="font-family: Arial, sans-serif; font-size: 12px; fill: rgb(123, 123, 123); font-weight: bold;">Revenues in millions (Adjusted for inflation)</text><g id="labels"><text x="255.97826086956522" y="328.39625060406667" text-anchor="middle" alignment-baseline="middle" style="font-family: Arial, sans-serif; font-size: 10px; fill: black; font-weight: bold;">Tape</text><text x="443.695652173913" y="268.2096379111" text-anchor="middle" alignment-baseline="middle" style="font-family: Arial, sans-serif; font-size: 10px; fill: black; font-weight: bold;">Disc</text><text x="665.5434782608695" y="412.90033601381674" text-anchor="middle" alignment-baseline="middle" style="font-family: Arial, sans-serif; font-size: 10px; fill: black; font-weight: bold;">Download</text><text x="529.0217391304348" y="538.3108544214782" text-anchor="middle" alignment-baseline="middle" style="font-family: Arial, sans-serif; font-size: 10px; fill: black; font-weight: bold;">Other</text><text x="785" y="399.7617198890333" text-anchor="end" alignment-baseline="middle" style="font-family: Arial, sans-serif; font-size: 10px; fill: black; font-weight: bold;">Streaming</text><text x="85.32608695652173" y="306.0590288733333" text-anchor="middle" alignment-baseline="middle" style="font-family: Arial, sans-serif; font-size: 10px; fill: black; font-weight: bold;">Vinyl</text></g></g><text x="4" y="4" style="font-family: Arial, sans-serif; font-size: 12px; fill: black; font-weight: bold; dominant-baseline: hanging;"/></g></g></svg>
