<svg xmlns="http://www.w3.org/2000/svg" width="805" height="600"><rect width="805" height="600" x="0" y="0" fill="#FFFFFF" id="background"/><g id="viz"><g transform="translate(0,0)"><g transform="translate(10,20)"><g><path fill="#9467bd" d="M0,529.704L2.8442028985507246,529.438C5.688405797101449,529.1719999999999,11.376811594202898,528.64,17.065217391304348,528.4486666666666C22.753623188405797,528.2573333333333,28.442028985507246,528.4066666666666,34.130434782608695,527.7206666666666C39.81884057971015,527.0346666666666,45.507246376811594,525.5133333333333,51.19565217391304,523.0913333333333C56.88405797101449,520.6693333333333,62.57246376811594,517.3466666666667,68.26086956521739,514.2526666666666C73.94927536231883,511.1586666666667,79.6376811594203,508.29333333333335,85.32608695652173,507.51866666666666C91.01449275362319,506.74399999999997,96.70289855072463,508.05999999999995,102.39130434782608,508.5686666666666C108.07971014492755,509.07733333333334,113.76811594202898,508.77866666666665,119.45652173913044,509.09600000000006C125.14492753623188,509.41333333333336,130.83333333333334,510.34666666666664,136.52173913043478,509.57800000000003C142.21014492753622,508.80933333333337,147.89855072463766,506.3386666666667,153.58695652173913,503.204C159.2753623188406,500.06933333333336,164.96376811594203,496.2706666666666,170.65217391304347,489.69533333333334C176.3405797101449,483.11999999999995,182.02898550724638,473.76800000000003,187.71739130434784,454.384C193.40579710144928,435,199.09420289855072,405.584,204.78260869565216,392.4066666666667C210.4710144927536,379.2293333333334,216.15942028985503,382.2906666666666,221.8478260869565,379.64000000000004C227.53623188405797,376.98933333333326,233.2246376811594,368.6266666666667,238.91304347826087,361.6793333333333C244.60144927536234,354.73199999999997,250.28985507246375,349.2,255.97826086956522,344.33400000000006C261.6666666666667,339.468,267.3550724637681,335.26800000000003,273.04347826086956,330.42400000000004C278.731884057971,325.58000000000004,284.42028985507244,320.09200000000004,290.1086956521739,320.36733333333336C295.7971014492753,320.6426666666667,301.4855072463768,326.6813333333333,307.17391304347825,325.29066666666665C312.8623188405797,323.9,318.5507246376812,315.08,324.2391304347826,331.51466666666664C329.92753623188406,347.9493333333333,335.6159420289855,389.6386666666667,341.30434782608694,410.5346666666667C346.99275362318843,431.43066666666664,352.6811594202898,431.5333333333333,358.3695652173913,435.4579999999999C364.05797101449275,439.38266666666664,369.74637681159425,447.1293333333333,375.4347826086957,453.4853333333333C381.1231884057972,459.8413333333333,386.81159420289856,464.8066666666666,392.5,470.626C398.18840579710144,476.4453333333333,403.8768115942028,483.11866666666657,409.5652173913043,487.51466666666664C415.25362318840575,491.91066666666666,420.94202898550725,494.02933333333334,426.6304347826087,497.66C432.3188405797102,501.2906666666666,438.00724637681157,506.43333333333334,443.695652173913,511.9586666666667C449.3840579710145,517.484,455.072463768116,523.3919999999999,460.7608695652175,527.82706C466.4492753623188,532.26212,472.1376811594203,535.22424,477.82608695652175,537.5635C483.5144927536232,539.9027600000001,489.2028985507247,541.6191600000001,494.89130434782606,543.8714333333334C500.57971014492756,546.1237066666666,506.268115942029,548.9118533333334,511.9565217391305,551.0512600000001C517.6449275362319,553.1906666666667,523.3333333333334,554.6813333333333,529.0217391304348,555.948C534.7101449275361,557.2146666666667,540.3985507246376,558.2573333333333,546.0869565217391,558.8626666666668C551.7753623188406,559.468,557.463768115942,559.636,563.1521739130435,559.734C568.8405797101449,559.832,574.5289855072464,559.86,580.2173913043479,559.888C585.9057971014493,559.916,591.5942028985507,559.944,597.2826086956522,559.9626666666667C602.9710144927536,559.9813333333333,608.6594202898551,559.9906666666667,614.3478260869565,559.9953333333333C620.036231884058,560,625.7246376811594,560,631.4130434782609,560C637.1014492753624,560,642.7898550724639,560,648.4782608695652,560C654.1666666666666,560,659.8550724637681,560,665.5434782608695,560C671.231884057971,560,676.9202898550724,560,682.6086956521739,560C688.2971014492754,560,693.9855072463769,560,699.6739130434784,560C705.3623188405796,560,711.0507246376811,560,716.7391304347826,560C722.427536231884,560,728.1159420289855,560,733.804347826087,560C739.4927536231885,560,745.18115942029,560,750.8695652173914,560C756.5579710144929,560,762.2463768115941,560,767.9347826086956,560C773.623188405797,560,779.3115942028985,560,782.1557971014494,560L785,560L785,560L782.1557971014494,560C779.3115942028985,560,773.623188405797,560,767.9347826086956,560C762.2463768115941,560,756.5579710144929,560,750.8695652173914,560C745.18115942029,560,739.4927536231885,560,733.804347826087,560C728.1159420289855,560,722.427536231884,560,716.7391304347826,560C711.0507246376811,560,705.3623188405796,560,699.6739130434781,560C693.9855072463769,560,688.2971014492754,560,682.6086956521739,560C676.9202898550724,560,671.231884057971,560,665.5434782608695,560C659.8550724637681,560,654.1666666666666,560,648.4782608695652,560C642.7898550724639,560,637.1014492753624,560,631.4130434782609,560C625.7246376811594,560,620.036231884058,560,614.3478260869565,560C608.6594202898551,560,602.9710144927536,560,597.2826086956521,560C591.5942028985507,560,585.9057971014493,560,580.2173913043478,560C574.5289855072464,560,568.8405797101449,560,563.1521739130435,560C557.463768115942,560,551.7753623188406,560,546.0869565217391,559.6046666666667C540.3985507246376,559.2093333333333,534.7101449275361,558.4186666666667,529.0217391304348,557.8380000000001C523.3333333333334,557.2573333333333,517.6449275362319,556.8866666666668,511.95652173913044,555.9559266666668C506.268115942029,555.0251866666667,500.57971014492756,553.5343733333333,494.8913043478262,552.5794333333333C489.2028985507247,551.6244933333334,483.5144927536232,551.2054266666668,477.82608695652175,551.0221666666667C472.1376811594203,550.8389066666667,466.4492753623188,550.8914533333333,460.76086956521743,550.78706C455.072463768116,550.6826666666666,449.3840579710145,550.4213333333333,443.695652173913,549.9173333333333C438.00724637681157,549.4133333333333,432.3188405797102,548.6666666666666,426.63043478260875,548.6293333333333C420.94202898550725,548.592,415.25362318840575,549.264,409.5652173913043,549.5486666666667C403.8768115942028,549.8333333333334,398.18840579710144,549.7306666666667,392.5,549.908C386.81159420289856,550.0853333333333,381.1231884057972,550.5426666666667,375.4347826086957,550.7806666666667C369.74637681159425,551.0186666666667,364.05797101449275,551.0373333333333,358.3695652173913,550.93C352.6811594202898,550.8226666666667,346.99275362318843,550.5893333333333,341.30434782608694,530.8366666666667C335.6159420289855,511.084,329.92753623188406,471.81199999999995,324.2391304347826,455.5639999999999C318.5507246376812,439.316,312.8623188405797,446.09200000000004,307.17391304347825,451.15066666666667C301.4855072463768,456.2093333333334,295.7971014492753,459.5506666666667,290.1086956521739,463.62933333333336C284.42028985507244,467.708,278.731884057971,472.52400000000006,273.04347826086956,474.708C267.3550724637681,476.89200000000005,261.6666666666667,476.444,255.97826086956525,476.30266666666665C250.28985507246375,476.1613333333333,244.60144927536234,476.32666666666665,238.91304347826087,477.296C233.2246376811594,478.2653333333333,227.53623188405797,480.03866666666664,221.84782608695653,479.1426666666666C216.15942028985503,478.24666666666667,210.4710144927536,474.68133333333327,204.78260869565213,487.2753333333333C199.09420289855072,499.8693333333333,193.40579710144928,528.6226666666666,187.71739130434784,543.2326666666667C182.02898550724638,557.8426666666667,176.3405797101449,558.3093333333334,170.65217391304347,558.58C164.96376811594203,558.8506666666667,159.2753623188406,558.9253333333334,153.58695652173913,559.1293333333333C147.89855072463766,559.3333333333334,142.21014492753622,559.6666666666666,136.52173913043478,559.8333333333334C130.83333333333334,560,125.14492753623188,560,119.45652173913044,560C113.76811594202898,560,108.07971014492755,560,102.39130434782608,560C96.70289855072463,560,91.01449275362319,560,85.32608695652173,560C79.6376811594203,560,73.94927536231883,560,68.26086956521739,560C62.57246376811594,560,56.88405797101449,560,51.19565217391304,560C45.507246376811594,560,39.81884057971015,560,34.130434782608695,560C28.442028985507246,560,22.753623188405797,560,17.065217391304348,560C11.376811594202898,560,5.688405797101449,560,2.8442028985507246,560L0,560Z"><title>Tape</title></path><path fill="#1f77b4" d="M0,560L2.8442028985507246,560C5.688405797101449,560,11.376811594202898,560,17.065217391304348,560C22.753623188405797,560,28.442028985507246,560,34.130434782608695,560C39.81884057971015,560,45.507246376811594,560,51.19565217391304,560C56.88405797101449,560,62.57246376811594,560,68.26086956521739,560C73.94927536231883,560,79.6376811594203,560,85.32608695652173,560C91.01449275362319,560,96.70289855072463,560,102.39130434782608,560C108.07971014492755,560,113.76811594202898,560,119.45652173913044,560C125.14492753623188,560,130.83333333333334,560,136.52173913043478,560C142.21014492753622,560,147.89855072463766,560,153.58695652173913,559.9626666666667C159.2753623188406,559.9253333333334,164.96376811594203,559.8506666666667,170.65217391304347,559.58C176.3405797101449,559.3093333333334,182.02898550724638,558.8426666666667,187.71739130434784,557.8253333333333C193.40579710144928,556.808,199.09420289855072,555.24,204.78260869565216,553.0373333333333C210.4710144927536,550.8346666666666,216.15942028985503,547.9973333333334,221.8478260869565,544.2873333333333C227.53623188405797,540.5773333333333,233.2246376811594,535.9946666666666,238.91304347826087,524.634C244.60144927536234,513.2733333333334,250.28985507246375,495.13466666666665,255.97826086956522,486.2893333333334C261.6666666666667,477.444,267.3550724637681,477.89200000000005,273.04347826086956,475.708C278.731884057971,473.52400000000006,284.42028985507244,468.708,290.1086956521739,464.6293333333333C295.7971014492753,460.5506666666667,301.4855072463768,457.2093333333334,307.17391304347825,452.15066666666667C312.8623188405797,447.09200000000004,318.5507246376812,440.316,324.2391304347826,412.91C329.92753623188406,385.50399999999996,335.6159420289855,337.468,341.30434782608694,305.652C346.99275362318843,273.836,352.6811594202898,258.24,358.3695652173913,250.90866666666668C364.05797101449275,243.5773333333333,369.74637681159425,244.51066666666665,375.4347826086957,243.83400000000003C381.1231884057972,243.15733333333333,386.81159420289856,240.87066666666666,392.5,243.17133333333334C398.18840579710144,245.47199999999998,403.8768115942028,252.35999999999999,409.5652173913043,252.98066666666668C415.25362318840575,253.60133333333332,420.94202898550725,247.95466666666664,426.6304347826087,243.4186666666666C432.3188405797102,238.88266666666664,438.00724637681157,235.45733333333337,443.695652173913,237.54333333333338C449.3840579710145,239.6293333333334,455.072463768116,247.2266666666667,460.7608695652175,256.12306C466.4492753623188,265.01945333333333,472.1376811594203,275.21490666666665,477.82608695652175,285.4361666666667C483.5144927536232,295.65742666666665,489.2028985507247,305.9044933333333,494.89130434782606,313.74409999999995C500.57971014492756,321.5837066666666,506.268115942029,327.0158533333333,511.9565217391305,322.27925999999997C517.6449275362319,317.54266666666666,523.3333333333334,302.63733333333334,529.0217391304348,279.14066666666673C534.7101449275361,255.64400000000003,540.3985507246376,223.55600000000004,546.0869565217391,238.12400000000002C551.7753623188406,252.692,557.463768115942,313.916,563.1521739130435,349.904C568.8405797101449,385.892,574.5289855072464,396.644,580.2173913043479,408.8734666666667C585.9057971014493,421.10293333333334,591.5942028985507,434.8098666666667,597.2826086956522,445.21986666666663C602.9710144927536,455.62986666666666,608.6594202898551,462.7429333333334,614.3478260869565,468.4162666666666C620.036231884058,474.0896,625.7246376811594,478.3232,631.4130434782609,481.0154C637.1014492753624,483.7076,642.7898550724639,484.8584,648.4782608695652,487.4174613488999C654.1666666666666,489.97652269779996,659.8550724637681,493.94384539559996,665.5434782608695,496.94998089411996C671.231884057971,499.95611639264,676.9202898550724,502.00106469187995,682.6086956521739,504.72736377834667C688.2971014492754,507.45366286481334,693.9855072463769,510.8613127385067,699.6739130434784,513.4473978774399C705.3623188405796,516.0334830163733,711.0507246376811,517.7980034205467,716.7391304347826,519.61486552504C722.427536231884,521.4317276295334,728.1159420289855,523.3009314343467,733.804347826087,524.7106823481533C739.4927536231885,526.12043326196,745.18115942029,527.07073128476,750.8695652173914,529.2005780320868C756.5579710144929,531.3304247794134,762.2463768115941,534.6398202512668,767.9347826086956,536.45176715414C773.623188405797,538.2637140570133,779.3115942028985,538.5782123909066,782.1557971014494,538.7354615578533L785,538.8927107247999L785,551.9268246946L782.1557971014494,552.0242601061933C779.3115942028985,552.1216955177866,773.623188405797,552.3165663409733,767.9347826086956,552.4318341711332C762.2463768115941,552.5471020012933,756.5579710144929,552.5827668384267,750.8695652173914,552.5872739788266C745.18115942029,552.5917811192267,739.4927536231885,552.5651305628934,733.804347826087,552.5425248846933C728.1159420289855,552.5199192064933,722.427536231884,552.5013584064267,716.7391304347826,552.6406456514467C711.0507246376811,552.7799328964667,705.3623188405796,553.0770681865733,699.6739130434781,553.1460585446067C693.9855072463769,553.21504890264,688.2971014492754,553.0558943286001,682.6086956521739,553.1128479330467C676.9202898550724,553.1698015374933,671.231884057971,553.4428633204267,665.5434782608695,553.5976066946668C659.8550724637681,553.7523500689066,654.1666666666666,553.7887750344534,648.4782608695652,553.78692085056C642.7898550724639,553.7850666666667,637.1014492753624,553.7449333333333,631.4130434782609,553.6380666666668C625.7246376811594,553.5312,620.036231884058,553.3575999999999,614.3478260869565,553.0556C608.6594202898551,552.7536,602.9710144927536,552.3232,597.2826086956521,551.4752000000001C591.5942028985507,550.6272,585.9057971014493,549.3616000000001,580.2173913043478,548.9154666666667C574.5289855072464,548.4693333333333,568.8405797101449,548.8426666666667,563.1521739130435,522.4773333333334C557.463768115942,496.112,551.7753623188406,443.008,546.0869565217391,435.4026666666666C540.3985507246376,427.79733333333337,534.7101449275361,465.6906666666667,529.0217391304348,491.376C523.3333333333334,517.0613333333333,517.6449275362319,530.5386666666667,511.95652173913044,536.99726C506.268115942029,543.4558533333333,500.57971014492756,542.8957066666667,494.8913043478262,541.7574333333333C489.2028985507247,540.6191600000001,483.5144927536232,538.9027600000001,477.82608695652175,536.5635000000001C472.1376811594203,534.22424,466.4492753623188,531.26212,460.76086956521743,526.82706C455.072463768116,522.3919999999999,449.3840579710145,516.484,443.695652173913,510.9586666666667C438.00724637681157,505.43333333333334,432.3188405797102,500.2906666666666,426.63043478260875,496.6599999999999C420.94202898550725,493.02933333333334,415.25362318840575,490.91066666666666,409.5652173913043,486.51466666666664C403.8768115942028,482.11866666666657,398.18840579710144,475.4453333333333,392.5,469.6259999999999C386.81159420289856,463.8066666666666,381.1231884057972,458.8413333333333,375.4347826086957,452.4853333333333C369.74637681159425,446.1293333333333,364.05797101449275,438.38266666666664,358.3695652173913,434.458C352.6811594202898,430.5333333333333,346.99275362318843,430.43066666666664,341.30434782608694,450.2720000000001C335.6159420289855,470.1133333333334,329.92753623188406,509.89866666666666,324.2391304347826,529.6419999999999C318.5507246376812,549.3853333333333,312.8623188405797,549.0866666666667,307.17391304347825,548.2093333333333C301.4855072463768,547.332,295.7971014492753,545.876,290.1086956521739,543.804C284.42028985507244,541.732,278.731884057971,539.044,273.04347826086956,534.8673333333334C267.3550724637681,530.6906666666667,261.6666666666667,525.0253333333334,255.97826086956525,528.966C250.28985507246375,532.9066666666666,244.60144927536234,546.4533333333334,238.91304347826087,553.2266666666667C233.2246376811594,560,227.53623188405797,560,221.84782608695653,560C216.15942028985503,560,210.4710144927536,560,204.78260869565213,560C199.09420289855072,560,193.40579710144928,560,187.71739130434784,560C182.02898550724638,560,176.3405797101449,560,170.65217391304347,560C164.96376811594203,560,159.2753623188406,560,153.58695652173913,560C147.89855072463766,560,142.21014492753622,560,136.52173913043478,560C130.83333333333334,560,125.14492753623188,560,119.45652173913044,560C113.76811594202898,560,108.07971014492755,560,102.39130434782608,560C96.70289855072463,560,91.01449275362319,560,85.32608695652173,560C79.6376811594203,560,73.94927536231883,560,68.26086956521739,560C62.57246376811594,560,56.88405797101449,560,51.19565217391304,560C45.507246376811594,560,39.81884057971015,560,34.130434782608695,560C28.442028985507246,560,22.753623188405797,560,17.065217391304348,560C11.376811594202898,560,5.688405797101449,560,2.8442028985507246,560L0,560Z"><title>Disc</title></path><path fill="#ff7f0e" d="M0,560L2.8442028985507246,560C5.688405797101449,560,11.376811594202898,560,17.065217391304348,560C22.753623188405797,560,28.442028985507246,560,34.130434782608695,560C39.81884057971015,560,45.507246376811594,560,51.19565217391304,560C56.88405797101449,560,62.57246376811594,560,68.26086956521739,560C73.94927536231883,560,79.6376811594203,560,85.32608695652173,560C91.01449275362319,560,96.70289855072463,560,102.39130434782608,560C108.07971014492755,560,113.76811594202898,560,119.45652173913044,560C125.14492753623188,560,130.83333333333334,560,136.52173913043478,559.8333333333334C142.21014492753622,559.6666666666666,147.89855072463766,559.3333333333334,153.58695652173913,559.3333333333334C159.2753623188406,559.3333333333334,164.96376811594203,559.6666666666666,170.65217391304347,559.8333333333334C176.3405797101449,560,182.02898550724638,560,187.71739130434784,560C193.40579710144928,560,199.09420289855072,560,204.78260869565216,560C210.4710144927536,560,216.15942028985503,560,221.8478260869565,560C227.53623188405797,560,233.2246376811594,560,238.91304347826087,560C244.60144927536234,560,250.28985507246375,560,255.97826086956522,560C261.6666666666667,560,267.3550724637681,560,273.04347826086956,560C278.731884057971,560,284.42028985507244,560,290.1086956521739,560C295.7971014492753,560,301.4855072463768,560,307.17391304347825,560C312.8623188405797,560,318.5507246376812,560,324.2391304347826,560C329.92753623188406,560,335.6159420289855,560,341.30434782608694,560C346.99275362318843,560,352.6811594202898,560,358.3695652173913,560C364.05797101449275,560,369.74637681159425,560,375.4347826086957,560C381.1231884057972,560,386.81159420289856,560,392.5,560C398.18840579710144,560,403.8768115942028,560,409.5652173913043,560C415.25362318840575,560,420.94202898550725,560,426.6304347826087,560C432.3188405797102,560,438.00724637681157,560,443.695652173913,560C449.3840579710145,560,455.072463768116,560,460.7608695652175,560C466.4492753623188,560,472.1376811594203,560,477.82608695652175,560C483.5144927536232,560,489.2028985507247,560,494.89130434782606,560C500.57971014492756,560,506.268115942029,560,511.9565217391305,550.764C517.6449275362319,541.528,523.3333333333334,523.056,529.0217391304348,494.8733333333334C534.7101449275361,466.6906666666667,540.3985507246376,428.79733333333337,546.0869565217391,363.24133333333333C551.7753623188406,297.6853333333333,557.463768115942,204.4666666666666,563.1521739130435,145.5793333333333C568.8405797101449,86.69199999999996,574.5289855072464,62.13599999999999,580.2173913043479,46.678133333333335C585.9057971014493,31.220266666666678,591.5942028985507,24.860533333333336,597.2826086956522,26.100533333333313C602.9710144927536,27.340533333333287,608.6594202898551,36.180266666666576,614.3478260869565,44.75159999999992C620.036231884058,53.32293333333325,625.7246376811594,61.625866666666646,631.4130434782609,61.78873333333333C637.1014492753624,61.951600000000006,642.7898550724639,53.97439999999997,648.4782608695652,50.99861280543329C654.1666666666666,48.02282561086662,659.8550724637681,50.04845122173331,665.5434782608695,56.290767043853315C671.231884057971,62.53308286597331,676.9202898550724,72.99208889934663,682.6086956521739,89.09488081061329C688.2971014492754,105.19767272187995,693.9855072463769,126.94425051103997,699.6739130434784,147.28075681061333C705.3623188405796,167.61726311018666,711.0507246376811,186.54369792017337,716.7391304347826,209.3219101837867C722.427536231884,232.10012244740005,728.1159420289855,258.73011216464005,733.804347826087,282.6622275518667C739.4927536231885,306.5943429390934,745.18115942029,327.8285839963067,750.8695652173914,348.2630540260334C756.5579710144929,368.6975240557601,762.2463768115941,388.332223058,767.9347826086956,401.8333866052C773.623188405797,415.33455015239997,779.3115942028985,422.70217824456,782.1557971014494,426.38599229064L785,430.06980633672003L785,537.8927107247999L782.1557971014494,537.7354615578533C779.3115942028985,537.5782123909066,773.623188405797,537.2637140570133,767.9347826086956,535.45176715414C762.2463768115941,533.6398202512668,756.5579710144929,530.3304247794134,750.8695652173914,528.2005780320868C745.18115942029,526.07073128476,739.4927536231885,525.12043326196,733.804347826087,523.7106823481535C728.1159420289855,522.3009314343467,722.427536231884,520.4317276295334,716.7391304347826,518.61486552504C711.0507246376811,516.7980034205467,705.3623188405796,515.0334830163733,699.6739130434781,512.4473978774399C693.9855072463769,509.8613127385067,688.2971014492754,506.45366286481334,682.6086956521739,503.7273637783466C676.9202898550724,501.00106469187995,671.231884057971,498.95611639264,665.5434782608695,495.94998089411996C659.8550724637681,492.94384539559996,654.1666666666666,488.97652269779996,648.4782608695652,486.41746134889996C642.7898550724639,483.8584,637.1014492753624,482.7076,631.4130434782609,480.01539999999994C625.7246376811594,477.3232,620.036231884058,473.0896,614.3478260869565,467.4162666666666C608.6594202898551,461.7429333333334,602.9710144927536,454.62986666666666,597.2826086956521,444.21986666666675C591.5942028985507,433.8098666666667,585.9057971014493,420.10293333333334,580.2173913043478,407.8734666666667C574.5289855072464,395.644,568.8405797101449,384.892,563.1521739130435,408.0886666666666C557.463768115942,431.28533333333326,551.7753623188406,488.43066666666664,546.0869565217391,516.8913333333334C540.3985507246376,545.352,534.7101449275361,545.128,529.0217391304348,547.532C523.3333333333334,549.936,517.6449275362319,554.968,511.95652173913044,557.484C506.268115942029,560,500.57971014492756,560,494.8913043478262,560C489.2028985507247,560,483.5144927536232,560,477.82608695652175,560C472.1376811594203,560,466.4492753623188,560,460.76086956521743,560C455.072463768116,560,449.3840579710145,560,443.695652173913,560C438.00724637681157,560,432.3188405797102,560,426.63043478260875,560C420.94202898550725,560,415.25362318840575,560,409.5652173913043,560C403.8768115942028,560,398.18840579710144,560,392.5,560C386.81159420289856,560,381.1231884057972,560,375.4347826086957,560C369.74637681159425,560,364.05797101449275,560,358.3695652173913,560C352.6811594202898,560,346.99275362318843,560,341.30434782608694,560C335.6159420289855,560,329.92753623188406,560,324.2391304347826,560C318.5507246376812,560,312.8623188405797,560,307.17391304347825,560C301.4855072463768,560,295.7971014492753,560,290.1086956521739,560C284.42028985507244,560,278.731884057971,560,273.04347826086956,560C267.3550724637681,560,261.6666666666667,560,255.97826086956525,560C250.28985507246375,560,244.60144927536234,560,238.91304347826087,560C233.2246376811594,560,227.53623188405797,560,221.84782608695653,560C216.15942028985503,560,210.4710144927536,560,204.78260869565213,560C199.09420289855072,560,193.40579710144928,560,187.71739130434784,560C182.02898550724638,560,176.3405797101449,560,170.65217391304347,559.8333333333334C164.96376811594203,559.6666666666666,159.2753623188406,559.3333333333334,153.58695652173913,559.3333333333334C147.89855072463766,559.3333333333334,142.21014492753622,559.6666666666666,136.52173913043478,559.8333333333334C130.83333333333334,560,125.14492753623188,560,119.45652173913044,560C113.76811594202898,560,108.07971014492755,560,102.39130434782608,560C96.70289855072463,560,91.01449275362319,560,85.32608695652173,560C79.6376811594203,560,73.94927536231883,560,68.26086956521739,560C62.57246376811594,560,56.88405797101449,560,51.19565217391304,560C45.507246376811594,560,39.81884057971015,560,34.130434782608695,560C28.442028985507246,560,22.753623188405797,560,17.065217391304348,560C11.376811594202898,560,5.688405797101449,560,2.8442028985507246,560L0,560Z"><title>Download</title></path><path fill="#2ca02c" d="M0,560L2.8442028985507246,560C5.688405797101449,560,11.376811594202898,560,17.065217391304348,560C22.753623188405797,560,28.442028985507246,560,34.130434782608695,560C39.81884057971015,560,45.507246376811594,560,51.19565217391304,560C56.88405797101449,560,62.57246376811594,560,68.26086956521739,560C73.94927536231883,560,79.6376811594203,560,85.32608695652173,560C91.01449275362319,560,96.70289855072463,560,102.39130434782608,560C108.07971014492755,560,113.76811594202898,560,119.45652173913044,560C125.14492753623188,560,130.83333333333334,560,136.52173913043478,559.8333333333334C142.21014492753622,559.6666666666666,147.89855072463766,559.3333333333334,153.58695652173913,559.3333333333334C159.2753623188406,559.3333333333334,164.96376811594203,559.6666666666666,170.65217391304347,559.8333333333334C176.3405797101449,560,182.02898550724638,560,187.71739130434784,560C193.40579710144928,560,199.09420289855072,560,204.78260869565216,560C210.4710144927536,560,216.15942028985503,560,221.8478260869565,560C227.53623188405797,560,233.2246376811594,560,238.91304347826087,560C244.60144927536234,560,250.28985507246375,560,255.97826086956522,559.7153333333333C261.6666666666667,559.4306666666666,267.3550724637681,558.8613333333334,273.04347826086956,558.432C278.731884057971,558.0026666666666,284.42028985507244,557.7133333333333,290.1086956521739,557.7133333333333C295.7971014492753,557.7133333333333,301.4855072463768,558.0026666666666,307.17391304347825,558.0773333333333C312.8623188405797,558.152,318.5507246376812,558.0120000000001,324.2391304347826,557.7833333333333C329.92753623188406,557.5546666666667,335.6159420289855,557.2373333333334,341.30434782608694,557.0693333333334C346.99275362318843,556.9013333333334,352.6811594202898,556.8826666666666,358.3695652173913,556.0626666666666C364.05797101449275,555.2426666666667,369.74637681159425,553.6213333333334,375.4347826086957,552.582C381.1231884057972,551.5426666666667,386.81159420289856,551.0853333333333,392.5,550.908C398.18840579710144,550.7306666666667,403.8768115942028,550.8333333333334,409.5652173913043,550.5486666666667C415.25362318840575,550.264,420.94202898550725,549.592,426.6304347826087,549.6293333333333C432.3188405797102,549.6666666666666,438.00724637681157,550.4133333333333,443.695652173913,550.9173333333333C449.3840579710145,551.4213333333333,455.072463768116,551.6826666666666,460.7608695652175,551.78706C466.4492753623188,551.8914533333333,472.1376811594203,551.8389066666667,477.82608695652175,552.0221666666667C483.5144927536232,552.2054266666668,489.2028985507247,552.6244933333334,494.89130434782606,551.4961C500.57971014492756,550.3677066666665,506.268115942029,547.6918533333333,511.9565217391305,546.5019266666667C517.6449275362319,545.312,523.3333333333334,545.6080000000001,529.0217391304348,545.868C534.7101449275361,546.128,540.3985507246376,546.352,546.0869565217391,547.0706666666666C551.7753623188406,547.7893333333333,557.463768115942,549.0026666666666,563.1521739130435,549.4226666666667C568.8405797101449,549.8426666666667,574.5289855072464,549.4693333333333,580.2173913043479,549.9154666666667C585.9057971014493,550.3616000000001,591.5942028985507,551.6272,597.2826086956522,552.4752C602.9710144927536,553.3232,608.6594202898551,553.7536,614.3478260869565,554.0556C620.036231884058,554.3575999999999,625.7246376811594,554.5312,631.4130434782609,554.6380666666668C637.1014492753624,554.7449333333333,642.7898550724639,554.7850666666667,648.4782608695652,554.78692085056C654.1666666666666,554.7887750344534,659.8550724637681,554.7523500689066,665.5434782608695,555.21540483112C671.231884057971,555.6784595933333,676.9202898550724,556.6409940833066,682.6086956521739,557.2545560476333C688.2971014492754,557.86811801196,693.9855072463769,558.1327074506399,699.6739130434784,558.2747342722199C705.3623188405796,558.4167610937999,711.0507246376811,558.43622529828,716.7391304347826,558.5012659296C722.427536231884,558.56630656092,728.1159420289855,558.67692361908,733.804347826087,558.7821362461799C739.4927536231885,558.88734887328,745.18115942029,558.98715706932,750.8695652173914,559.0685667926333C756.5579710144929,559.1499765159466,762.2463768115941,559.2129877665333,767.9347826086956,559.2601308929133C773.623188405797,559.3072740192933,779.3115942028985,559.3385490214667,782.1557971014494,559.3541865225533L785,559.36982402364L785,560L782.1557971014494,560C779.3115942028985,560,773.623188405797,560,767.9347826086956,560C762.2463768115941,560,756.5579710144929,560,750.8695652173914,560C745.18115942029,560,739.4927536231885,560,733.804347826087,560C728.1159420289855,560,722.427536231884,560,716.7391304347826,560C711.0507246376811,560,705.3623188405796,560,699.6739130434781,560C693.9855072463769,560,688.2971014492754,560,682.6086956521739,559.4924828524533C676.9202898550724,558.9849657049067,671.231884057971,557.9699314098133,665.5434782608695,557.5279314098133C659.8550724637681,557.0859314098133,654.1666666666666,557.2169657049067,648.4782608695652,557.3478161857867C642.7898550724639,557.4786666666666,637.1014492753624,557.6093333333333,631.4130434782609,557.7073333333334C625.7246376811594,557.8053333333334,620.036231884058,557.8706666666667,614.3478260869565,557.7553333333334C608.6594202898551,557.64,602.9710144927536,557.344,597.2826086956521,557.2473333333334C591.5942028985507,557.1506666666667,585.9057971014493,557.2533333333333,580.2173913043478,557.2673333333333C574.5289855072464,557.2813333333334,568.8405797101449,557.2066666666666,563.1521739130435,557.0433333333334C557.463768115942,556.88,551.7753623188406,556.628,546.0869565217391,556.3013333333333C540.3985507246376,555.9746666666666,534.7101449275361,555.5733333333334,529.0217391304348,554.6273333333334C523.3333333333334,553.6813333333333,517.6449275362319,552.1906666666667,511.95652173913044,552.5419933333334C506.268115942029,552.89332,500.57971014492756,555.08664,494.8913043478262,556.1059733333333C489.2028985507247,557.1253066666667,483.5144927536232,556.9706533333333,477.82608695652175,556.93066C472.1376811594203,556.8906666666667,466.4492753623188,556.9653333333334,460.76086956521743,556.9466666666667C455.072463768116,556.928,449.3840579710145,556.8159999999999,443.695652173913,556.732C438.00724637681157,556.648,432.3188405797102,556.592,426.63043478260875,556.4986666666667C420.94202898550725,556.4053333333334,415.25362318840575,556.2746666666667,409.5652173913043,556.0786666666667C403.8768115942028,555.8826666666668,398.18840579710144,555.6213333333334,392.5,555.5186666666666C386.81159420289856,555.416,381.1231884057972,555.4719999999999,375.4347826086957,556.2453333333333C369.74637681159425,557.0186666666666,364.05797101449275,558.5093333333333,358.3695652173913,559.2546666666666C352.6811594202898,560,346.99275362318843,560,341.30434782608694,560C335.6159420289855,560,329.92753623188406,560,324.2391304347826,560C318.5507246376812,560,312.8623188405797,560,307.17391304347825,560C301.4855072463768,560,295.7971014492753,560,290.1086956521739,560C284.42028985507244,560,278.731884057971,560,273.04347826086956,560C267.3550724637681,560,261.6666666666667,560,255.97826086956525,560C250.28985507246375,560,244.60144927536234,560,238.91304347826087,560C233.2246376811594,560,227.53623188405797,560,221.84782608695653,560C216.15942028985503,560,210.4710144927536,560,204.78260869565213,560C199.09420289855072,560,193.40579710144928,560,187.71739130434784,560C182.02898550724638,560,176.3405797101449,560,170.65217391304347,559.8333333333334C164.96376811594203,559.6666666666666,159.2753623188406,559.3333333333334,153.58695652173913,559.3333333333334C147.89855072463766,559.3333333333334,142.21014492753622,559.6666666666666,136.52173913043478,559.8333333333334C130.83333333333334,560,125.14492753623188,560,119.45652173913044,560C113.76811594202898,560,108.07971014492755,560,102.39130434782608,560C96.70289855072463,560,91.01449275362319,560,85.32608695652173,560C79.6376811594203,560,73.94927536231883,560,68.26086956521739,560C62.57246376811594,560,56.88405797101449,560,51.19565217391304,560C45.507246376811594,560,39.81884057971015,560,34.130434782608695,560C28.442028985507246,560,22.753623188405797,560,17.065217391304348,560C11.376811594202898,560,5.688405797101449,560,2.8442028985507246,560L0,560Z"><title>Other</title></path><path fill="#d62728" d="M0,560L2.8442028985507246,560C5.688405797101449,560,11.376811594202898,560,17.065217391304348,560C22.753623188405797,560,28.442028985507246,560,34.130434782608695,560C39.81884057971015,560,45.507246376811594,560,51.19565217391304,560C56.88405797101449,560,62.57246376811594,560,68.26086956521739,560C73.94927536231883,560,79.6376811594203,560,85.32608695652173,560C91.01449275362319,560,96.70289855072463,560,102.39130434782608,560C108.07971014492755,560,113.76811594202898,560,119.45652173913044,560C125.14492753623188,560,130.83333333333334,560,136.52173913043478,559.8333333333334C142.21014492753622,559.6666666666666,147.89855072463766,559.3333333333334,153.58695652173913,559.3333333333334C159.2753623188406,559.3333333333334,164.96376811594203,559.6666666666666,170.65217391304347,559.8333333333334C176.3405797101449,560,182.02898550724638,560,187.71739130434784,560C193.40579710144928,560,199.09420289855072,560,204.78260869565216,560C210.4710144927536,560,216.15942028985503,560,221.8478260869565,560C227.53623188405797,560,233.2246376811594,560,238.91304347826087,559.8333333333334C244.60144927536234,559.6666666666666,250.28985507246375,559.3333333333334,255.97826086956522,559.3333333333334C261.6666666666667,559.3333333333334,267.3550724637681,559.6666666666666,273.04347826086956,559.8333333333334C278.731884057971,560,284.42028985507244,560,290.1086956521739,560C295.7971014492753,560,301.4855072463768,560,307.17391304347825,560C312.8623188405797,560,318.5507246376812,560,324.2391304347826,560C329.92753623188406,560,335.6159420289855,560,341.30434782608694,560C346.99275362318843,560,352.6811594202898,560,358.3695652173913,560C364.05797101449275,560,369.74637681159425,560,375.4347826086957,560C381.1231884057972,560,386.81159420289856,560,392.5,560C398.18840579710144,560,403.8768115942028,560,409.5652173913043,560C415.25362318840575,560,420.94202898550725,560,426.6304347826087,560C432.3188405797102,560,438.00724637681157,560,443.695652173913,560C449.3840579710145,560,455.072463768116,560,460.7608695652175,560C466.4492753623188,560,472.1376811594203,560,477.82608695652175,560C483.5144927536232,560,489.2028985507247,560,494.89130434782606,559.8333333333334C500.57971014492756,559.6666666666666,506.268115942029,559.3333333333334,511.9565217391305,559.3333333333334C517.6449275362319,559.3333333333334,523.3333333333334,559.6666666666666,529.0217391304348,559.8333333333334C534.7101449275361,560,540.3985507246376,560,546.0869565217391,560C551.7753623188406,560,557.463768115942,560,563.1521739130435,560C568.8405797101449,560,574.5289855072464,560,580.2173913043479,560C585.9057971014493,560,591.5942028985507,560,597.2826086956522,560C602.9710144927536,560,608.6594202898551,560,614.3478260869565,560C620.036231884058,560,625.7246376811594,560,631.4130434782609,560C637.1014492753624,560,642.7898550724639,560,648.4782608695652,560C654.1666666666666,560,659.8550724637681,560,665.5434782608695,560C671.231884057971,560,676.9202898550724,560,682.6086956521739,560C688.2971014492754,560,693.9855072463769,560,699.6739130434784,560C705.3623188405796,560,711.0507246376811,560,716.7391304347826,560C722.427536231884,560,728.1159420289855,560,733.804347826087,560C739.4927536231885,560,745.18115942029,560,750.8695652173914,560C756.5579710144929,560,762.2463768115941,560,767.9347826086956,560C773.623188405797,560,779.3115942028985,560,782.1557971014494,560L785,560L785,560L782.1557971014494,560C779.3115942028985,560,773.623188405797,560,767.9347826086956,560C762.2463768115941,560,756.5579710144929,560,750.8695652173914,560C745.18115942029,560,739.4927536231885,560,733.804347826087,560C728.1159420289855,560,722.427536231884,560,716.7391304347826,560C711.0507246376811,560,705.3623188405796,560,699.6739130434781,560C693.9855072463769,560,688.2971014492754,560,682.6086956521739,560C676.9202898550724,560,671.231884057971,560,665.5434782608695,560C659.8550724637681,560,654.1666666666666,560,648.4782608695652,560C642.7898550724639,560,637.1014492753624,560,631.4130434782609,560C625.7246376811594,560,620.036231884058,560,614.3478260869565,560C608.6594202898551,560,602.9710144927536,560,597.2826086956521,560C591.5942028985507,560,585.9057971014493,560,580.2173913043478,560C574.5289855072464,560,568.8405797101449,560,563.1521739130435,560C557.463768115942,560,551.7753623188406,560,546.0869565217391,560C540.3985507246376,560,534.7101449275361,560,529.0217391304348,559.8333333333334C523.3333333333334,559.6666666666666,517.6449275362319,559.3333333333334,511.95652173913044,559.3333333333334C506.268115942029,559.3333333333334,500.57971014492756,559.6666666666666,494.8913043478262,559.8333333333334C489.2028985507247,560,483.5144927536232,560,477.82608695652175,560C472.1376811594203,560,466.4492753623188,560,460.76086956521743,560C455.072463768116,560,449.3840579710145,560,443.695652173913,560C438.00724637681157,560,432.3188405797102,560,426.63043478260875,560C420.94202898550725,560,415.25362318840575,560,409.5652173913043,560C403.8768115942028,560,398.18840579710144,560,392.5,560C386.81159420289856,560,381.1231884057972,560,375.4347826086957,560C369.74637681159425,560,364.05797101449275,560,358.3695652173913,560C352.6811594202898,560,346.99275362318843,560,341.30434782608694,560C335.6159420289855,560,329.92753623188406,560,324.2391304347826,560C318.5507246376812,560,312.8623188405797,560,307.17391304347825,560C301.4855072463768,560,295.7971014492753,560,290.1086956521739,560C284.42028985507244,560,278.731884057971,560,273.04347826086956,559.8333333333334C267.3550724637681,559.6666666666666,261.6666666666667,559.3333333333334,255.97826086956525,559.3333333333334C250.28985507246375,559.3333333333334,244.60144927536234,559.6666666666666,238.91304347826087,559.8333333333334C233.2246376811594,560,227.53623188405797,560,221.84782608695653,560C216.15942028985503,560,210.4710144927536,560,204.78260869565213,560C199.09420289855072,560,193.40579710144928,560,187.71739130434784,560C182.02898550724638,560,176.3405797101449,560,170.65217391304347,559.8333333333334C164.96376811594203,559.6666666666666,159.2753623188406,559.3333333333334,153.58695652173913,559.3333333333334C147.89855072463766,559.3333333333334,142.21014492753622,559.6666666666666,136.52173913043478,559.8333333333334C130.83333333333334,560,125.14492753623188,560,119.45652173913044,560C113.76811594202898,560,108.07971014492755,560,102.39130434782608,560C96.70289855072463,560,91.01449275362319,560,85.32608695652173,560C79.6376811594203,560,73.94927536231883,560,68.26086956521739,560C62.57246376811594,560,56.88405797101449,560,51.19565217391304,560C45.507246376811594,560,39.81884057971015,560,34.130434782608695,560C28.442028985507246,560,22.753623188405797,560,17.065217391304348,560C11.376811594202898,560,5.688405797101449,560,2.8442028985507246,560L0,560Z"><title>Streaming</title></path><path fill="#8c564b" d="M0,386.464L2.8442028985507246,387.50466666666665C5.688405797101449,388.5453333333333,11.376811594202898,390.6266666666666,17.065217391304348,394.4953333333333C22.753623188405797,398.364,28.442028985507246,404.02,34.130434782608695,404.1273333333333C39.81884057971015,404.23466666666667,45.507246376811594,398.7933333333333,51.19565217391304,391.09799999999996C56.88405797101449,383.4026666666667,62.57246376811594,373.4533333333334,68.26086956521739,367.172C73.94927536231883,360.8906666666667,79.6376811594203,358.2773333333333,85.32608695652173,358.9959999999999C91.01449275362319,359.7146666666667,96.70289855072463,363.76533333333333,102.39130434782608,367.368C108.07971014492755,370.97066666666666,113.76811594202898,374.12533333333334,119.45652173913044,376.874C125.14492753623188,379.62266666666665,130.83333333333334,381.9653333333334,136.52173913043478,385.112C142.21014492753622,388.25866666666667,147.89855072463766,392.2093333333334,153.58695652173913,394.4646666666667C159.2753623188406,396.72,164.96376811594203,397.28,170.65217391304347,392.80466666666666C176.3405797101449,388.3293333333333,182.02898550724638,378.8186666666666,187.71739130434784,391.1979999999999C193.40579710144928,403.57733333333334,199.09420289855072,437.84666666666664,204.78260869565216,456.76399999999995C210.4710144927536,475.68133333333327,216.15942028985503,479.24666666666667,221.8478260869565,480.1426666666666C227.53623188405797,481.03866666666664,233.2246376811594,479.2653333333333,238.91304347826087,485.5233333333333C244.60144927536234,491.78133333333335,250.28985507246375,506.0706666666667,255.97826086956522,516.0479999999999C261.6666666666667,526.0253333333334,267.3550724637681,531.6906666666667,273.04347826086956,535.8673333333334C278.731884057971,540.044,284.42028985507244,542.732,290.1086956521739,544.804C295.7971014492753,546.876,301.4855072463768,548.332,307.17391304347825,549.2093333333333C312.8623188405797,550.0866666666667,318.5507246376812,550.3853333333333,324.2391304347826,550.6466666666666C329.92753623188406,550.908,335.6159420289855,551.132,341.30434782608694,551.3606666666667C346.99275362318843,551.5893333333333,352.6811594202898,551.8226666666667,358.3695652173913,552.6846666666667C364.05797101449275,553.5466666666666,369.74637681159425,555.0373333333333,375.4347826086957,555.7546666666666C381.1231884057972,556.4719999999999,386.81159420289856,556.416,392.5,556.5186666666667C398.18840579710144,556.6213333333334,403.8768115942028,556.8826666666668,409.5652173913043,557.0786666666667C415.25362318840575,557.2746666666667,420.94202898550725,557.4053333333334,426.6304347826087,557.4986666666667C432.3188405797102,557.592,438.00724637681157,557.648,443.695652173913,557.732C449.3840579710145,557.8159999999999,455.072463768116,557.928,460.7608695652175,557.9466666666667C466.4492753623188,557.9653333333334,472.1376811594203,557.8906666666667,477.82608695652175,557.93066C483.5144927536232,557.9706533333333,489.2028985507247,558.1253066666667,494.89130434782606,558.0753066666667C500.57971014492756,558.0253066666667,506.268115942029,557.7706533333334,511.9565217391305,557.82866C517.6449275362319,557.8866666666668,523.3333333333334,558.2573333333333,529.0217391304348,558.234C534.7101449275361,558.2106666666667,540.3985507246376,557.7933333333334,546.0869565217391,557.7106666666667C551.7753623188406,557.628,557.463768115942,557.88,563.1521739130435,558.0433333333332C568.8405797101449,558.2066666666666,574.5289855072464,558.2813333333334,580.2173913043479,558.2673333333333C585.9057971014493,558.2533333333333,591.5942028985507,558.1506666666667,597.2826086956522,558.2473333333334C602.9710144927536,558.344,608.6594202898551,558.64,614.3478260869565,558.7553333333334C620.036231884058,558.8706666666667,625.7246376811594,558.8053333333334,631.4130434782609,558.7073333333334C637.1014492753624,558.6093333333333,642.7898550724639,558.4786666666666,648.4782608695652,558.3478161857867C654.1666666666666,558.2169657049067,659.8550724637681,558.0859314098133,665.5434782608695,557.34405470224C671.231884057971,556.6021779946667,676.9202898550724,555.2494588746134,682.6086956521739,554.6526766016067C688.2971014492754,554.0558943286001,693.9855072463769,554.21504890264,699.6739130434784,554.1460585446066C705.3623188405796,554.0770681865733,711.0507246376811,553.7799328964667,716.7391304347826,553.6406456514467C722.427536231884,553.5013584064267,728.1159420289855,553.5199192064933,733.804347826087,553.5425248846933C739.4927536231885,553.5651305628934,745.18115942029,553.5917811192267,750.8695652173914,553.5872739788266C756.5579710144929,553.5827668384267,762.2463768115941,553.5471020012933,767.9347826086956,553.4318341711333C773.623188405797,553.3165663409733,779.3115942028985,553.1216955177866,782.1557971014494,553.0242601061933L785,552.9268246946L785,558.36982402364L782.1557971014494,558.3541865225533C779.3115942028985,558.3385490214667,773.623188405797,558.3072740192933,767.9347826086956,558.2601308929133C762.2463768115941,558.2129877665333,756.5579710144929,558.1499765159466,750.8695652173914,558.0685667926333C745.18115942029,557.98715706932,739.4927536231885,557.88734887328,733.804347826087,557.7821362461799C728.1159420289855,557.67692361908,722.427536231884,557.56630656092,716.7391304347826,557.5012659296C711.0507246376811,557.43622529828,705.3623188405796,557.4167610937999,699.6739130434781,557.2747342722199C693.9855072463769,557.1327074506399,688.2971014492754,556.86811801196,682.6086956521739,557.30190186374C676.9202898550724,557.7356857155199,671.231884057971,558.86784285776,665.5434782608695,559.43392142888C659.8550724637681,560,654.1666666666666,560,648.4782608695652,560C642.7898550724639,560,637.1014492753624,560,631.4130434782609,560C625.7246376811594,560,620.036231884058,560,614.3478260869565,559.8286666666667C608.6594202898551,559.6573333333333,602.9710144927536,559.3146666666667,597.2826086956521,559.1293333333333C591.5942028985507,558.944,585.9057971014493,558.916,580.2173913043478,558.888C574.5289855072464,558.86,568.8405797101449,558.832,563.1521739130435,558.734C557.463768115942,558.636,551.7753623188406,558.468,546.0869565217391,558.6673333333334C540.3985507246376,558.8666666666667,534.7101449275361,559.4333333333334,529.0217391304348,559.5500000000001C523.3333333333334,559.6666666666666,517.6449275362319,559.3333333333334,511.95652173913044,559.3333333333334C506.268115942029,559.3333333333334,500.57971014492756,559.6666666666666,494.8913043478262,559.8333333333334C489.2028985507247,560,483.5144927536232,560,477.82608695652175,560C472.1376811594203,560,466.4492753623188,560,460.76086956521743,560C455.072463768116,560,449.3840579710145,560,443.695652173913,560C438.00724637681157,560,432.3188405797102,560,426.63043478260875,560C420.94202898550725,560,415.25362318840575,560,409.5652173913043,560C403.8768115942028,560,398.18840579710144,560,392.5,560C386.81159420289856,560,381.1231884057972,560,375.4347826086957,559.3106666666666C369.74637681159425,558.6213333333334,364.05797101449275,557.2426666666667,358.3695652173913,556.5626666666666C352.6811594202898,555.8826666666666,346.99275362318843,555.9013333333334,341.30434782608694,556.0693333333334C335.6159420289855,556.2373333333334,329.92753623188406,556.5546666666667,324.2391304347826,556.7833333333333C318.5507246376812,557.0120000000001,312.8623188405797,557.152,307.17391304347825,557.0773333333333C301.4855072463768,557.0026666666666,295.7971014492753,556.7133333333333,290.1086956521739,556.7133333333333C284.42028985507244,556.7133333333333,278.731884057971,557.0026666666666,273.04347826086956,557.432C267.3550724637681,557.8613333333334,261.6666666666667,558.4306666666666,255.97826086956525,553.9506666666666C250.28985507246375,549.4706666666667,244.60144927536234,539.9413333333333,238.91304347826087,537.468C233.2246376811594,534.9946666666666,227.53623188405797,539.5773333333333,221.84782608695653,543.2873333333333C216.15942028985503,546.9973333333334,210.4710144927536,549.8346666666666,204.78260869565213,536.3773333333334C199.09420289855072,522.92,193.40579710144928,493.16799999999995,187.71739130434784,482.968C182.02898550724638,472.76800000000003,176.3405797101449,482.11999999999995,170.65217391304347,488.69533333333334C164.96376811594203,495.2706666666666,159.2753623188406,499.06933333333336,153.58695652173913,502.2040000000001C147.89855072463766,505.3386666666667,142.21014492753622,507.80933333333337,136.52173913043478,508.57800000000003C130.83333333333334,509.34666666666664,125.14492753623188,508.41333333333336,119.45652173913044,508.096C113.76811594202898,507.77866666666665,108.07971014492755,508.07733333333334,102.39130434782608,507.5686666666666C96.70289855072463,507.05999999999995,91.01449275362319,505.74399999999997,85.32608695652173,506.5186666666666C79.6376811594203,507.29333333333335,73.94927536231883,510.1586666666667,68.26086956521739,513.2526666666666C62.57246376811594,516.3466666666667,56.88405797101449,519.6693333333333,51.19565217391304,522.0913333333333C45.507246376811594,524.5133333333333,39.81884057971015,526.0346666666666,34.130434782608695,526.7206666666666C28.442028985507246,527.4066666666666,22.753623188405797,527.2573333333333,17.065217391304348,527.4486666666667C11.376811594202898,527.64,5.688405797101449,528.1719999999999,2.8442028985507246,528.438L0,528.704Z"><title>Vinyl</title></path></g><g id="xAxis" transform="translate(0,560)" fill="none" font-size="10" font-family="sans-serif" text-anchor="middle"><path class="domain" stroke="currentColor" d="M0,0H785"/><g class="tick" opacity="1" transform="translate(34.130434782608695,0)"><line stroke="currentColor" y2="6"/><text fill="currentColor" y="9" dy="0.71em">1,975</text></g><g class="tick" opacity="1" transform="translate(119.45652173913044,0)"><line stroke="currentColor" y2="6"/><text fill="currentColor" y="9" dy="0.71em">1,980</text></g><g class="tick" opacity="1" transform="translate(204.78260869565216,0)"><line stroke="currentColor" y2="6"/><text fill="currentColor" y="9" dy="0.71em">1,985</text></g><g class="tick" opacity="1" transform="translate(290.1086956521739,0)"><line stroke="currentColor" y2="6"/><text fill="currentColor" y="9" dy="0.71em">1,990</text></g><g class="tick" opacity="1" transform="translate(375.4347826086957,0)"><line stroke="currentColor" y2="6"/><text fill="currentColor" y="9" dy="0.71em">1,995</text></g><g class="tick" opacity="1" transform="translate(460.76086956521743,0)"><line stroke="currentColor" y2="6"/><text fill="currentColor" y="9" dy="0.71em">2,000</text></g><g class="tick" opacity="1" transform="translate(546.0869565217391,0)"><line stroke="currentColor" y2="6"/><text fill="currentColor" y="9" dy="0.71em">2,005</text></g><g class="tick" opacity="1" transform="translate(631.4130434782609,0)"><line stroke="currentColor" y2="6"/><text fill="currentColor" y="9" dy="0.71em">2,010</text></g><g class="tick" opacity="1" transform="translate(716.7391304347826,0)"><line stroke="currentColor" y2="6"/><text fill="currentColor" y="9" dy="0.71em">2,015</text></g></g><text y="556" x="785" text-anchor="end" style="font-family: Arial, sans-serif; font-size: 12px; fill: rgb(123, 123, 123); font-weight: bold;">Year</text><text x="4" text-anchor="start" dominant-baseline="hanging" style="font-family: Arial, sans-serif; font-size: 12px; fill: rgb(123, 123, 123); font-weight: bold;">Units</text><g id="labels"><text x="290.1086956521739" y="388.74799999999993" text-anchor="middle" alignment-baseline="middle" style="font-family: Arial, sans-serif; font-size: 10px; fill: black; font-weight: bold;">Tape</text><text x="443.695652173913" y="371.3040000000001" text-anchor="middle" alignment-baseline="middle" style="font-family: Arial, sans-serif; font-size: 10px; fill: black; font-weight: bold;">Disc</text><text x="665.5434782608695" y="274.492622463" text-anchor="middle" alignment-baseline="middle" style="font-family: Arial, sans-serif; font-size: 10px; fill: black; font-weight: bold;">Download</text><text x="546.0869565217391" y="551.476" text-anchor="middle" alignment-baseline="middle" style="font-family: Arial, sans-serif; font-size: 10px; fill: black; font-weight: bold;">Other</text><text x="68.26086956521739" y="438.264" text-anchor="middle" alignment-baseline="middle" style="font-family: Arial, sans-serif; font-size: 10px; fill: black; font-weight: bold;">Vinyl</text></g></g><text x="4" y="4" style="font-family: Arial, sans-serif; font-size: 12px; fill: black; font-weight: bold; dominant-baseline: hanging;"/></g></g></svg>
