<svg xmlns="http://www.w3.org/2000/svg" width="805" height="600"><rect width="805" height="600" x="0" y="0" fill="#FFFFFF" id="background"/><g transform="translate(402.5,300)" id="viz"><path fill="#50e3c2" display="" d="M1.9999365840356926,-189.32277032827022A189.33333333333334,189.33333333333334,0,0,1,178.0108484722651,-64.49223935711474L90.54770237344296,-33.84609341319671A96.66666666666667,96.66666666666667,0,0,0,1.999936584035669,-96.64597610922185Z"><title>Desayuno</title></path><path fill="#9013fe" display="" d="M179.33351719315493,-60.71738402009363A189.33333333333334,189.33333333333334,0,0,1,13.9283228668787,188.82031917467754L8.08722357382768,96.327780309272A96.66666666666667,96.66666666666667,0,0,0,91.87037109433277,-30.071238076175597Z"><title>Almuerzo</title></path><path fill="#baf1e4" display="" d="M9.93640204600838,189.07241741060804A189.33333333333334,189.33333333333334,0,0,1,-182.03270771551306,52.06922731200937L-92.6652443857849,27.524478693831853A96.66666666666667,96.66666666666667,0,0,0,4.095302752957396,96.57987854520249Z"><title>Merienda</title></path><path fill="#5a9eed" display="" d="M-183.09204389823492,48.21218282009164A189.33333333333334,189.33333333333334,0,0,1,-1.9999365840353376,-189.32277032827022L-1.999936584035531,-96.64597610922185A96.66666666666667,96.66666666666667,0,0,0,-93.72458056850677,23.667434201914034Z"><title>Cena</title></path><path fill="#50e3c2" display="" d="M1.9999365840356873,-285.9930073509837A286,286,0,0,1,120.90102722693712,-259.18900751280216L81.14023508755271,-175.48230687939585A193.33333333333334,193.33333333333334,0,0,0,1.999936584035676,-193.32298888502015Z"><title>Cereales</title></path><path fill="#50e3c2" display="" d="M124.51402085091395,-257.4728308220853A286,286,0,0,1,201.01400598610286,-203.443774535912L135.42186562263464,-137.98078159317285A193.33333333333334,193.33333333333334,0,0,0,84.75322871152954,-173.76613018867903Z"><title>L치cteos</title></path><path fill="#50e3c2" display="" d="M203.83955488862603,-200.61265130296948A286,286,0,0,1,259.40396988041397,-120.43911495141973L175.08078781380837,-82.00302138503181A193.33333333333334,193.33333333333334,0,0,0,138.2474145251578,-135.1496583602303Z"><title>Frutas</title></path><path fill="#50e3c2" display="" d="M261.0629692189987,-116.79951242432527A286,286,0,0,1,269.2427812918354,-96.4589276440335L181.78602976769588,-65.81502229032645A193.33333333333334,193.33333333333334,0,0,0,176.73978715239318,-78.36341885793739Z"><title>Frutos secos</title></path><path fill="#9013fe" display="" d="M270.56545001272525,-92.68407230701233A286,286,0,0,1,284.5872775241759,28.39157395034129L192.44159534277685,18.547510876252574A193.33333333333334,193.33333333333334,0,0,0,183.1086984885857,-62.04016695330532Z"><title>Carnes</title></path><path fill="#9013fe" display="" d="M284.1623827803671,32.3688154337492A286,286,0,0,1,183.11335981273805,219.69409973435955L124.2800135377157,148.09542873715915A193.33333333333334,193.33333333333334,0,0,0,192.0167005989681,22.524752359660482Z"><title>Verduras</title></path><path fill="#9013fe" display="" d="M180.02297947471692,222.23349626247986A286,286,0,0,1,113.23659845947681,262.62801215659994L77.1415198089445,177.27651761963287A193.33333333333334,193.33333333333334,0,0,0,121.18963319969458,150.63482526527943Z"><title>Cereales</title></path><path fill="#9013fe" display="" d="M109.55261135658664,264.18596735056286A286,286,0,0,1,20.021115112128655,285.2983612810752L14.180442871468559,192.81258469754198A193.33333333333334,193.33333333333334,0,0,0,73.45753270605435,178.8344728135958Z"><title>Legumbres</title></path><path fill="#baf1e4" display="" d="M16.029194291258356,285.55045951700566A286,286,0,0,1,-102.2223086926201,267.10784265077405L-68.49572387549864,180.7930131076675A193.33333333333334,193.33333333333334,0,0,0,10.188522050598273,193.06468293347248Z"><title>Frutas</title></path><path fill="#baf1e4" display="" d="M-105.94787577905517,265.65211766124867A286,286,0,0,1,-204.98435214759488,199.4427621515276L-138.1148330637578,135.28514576829232A193.33333333333334,193.33333333333334,0,0,0,-72.22129096193369,179.33728811814206Z"><title>L치cteos</title></path><path fill="#baf1e4" display="" d="M-207.75355768512233,196.55650401137723A286,286,0,0,1,-245.1423437383733,147.31337789371753L-165.37922371094564,100.13735637883981A193.33333333333334,193.33333333333334,0,0,0,-140.88403860128528,132.39888762814186Z"><title>Cereales</title></path><path fill="#baf1e4" display="" d="M-247.178580546754,143.8705992164203A286,286,0,0,1,-275.25101479014234,77.67160907948816L-185.89008526286645,53.12865496831281A193.33333333333334,193.33333333333334,0,0,0,-167.41546051932642,96.69457770154251Z"><title>Frutos secos</title></path><path fill="#5a9eed" display="" d="M-276.3103509728642,73.81456458757039A286,286,0,0,1,-282.588062970777,-44.04527972920763L-191.125620853506,-29.1337404248005A193.33333333333334,193.33333333333334,0,0,0,-186.9494214455883,49.27161047639494Z"><title>Carnes</title></path><path fill="#5a9eed" display="" d="M-281.94444309300343,-47.99303083757195A286,286,0,0,1,-162.9345470810856,-235.0496402198512L-110.67419363468467,-158.5212939673724A193.33333333333334,193.33333333333334,0,0,0,-190.4820009757324,-33.0814915331649Z"><title>Verduras</title></path><path fill="#5a9eed" display="" d="M-159.63138944888348,-237.30532969703586A286,286,0,0,1,-93.80105261662447,-270.18024081715015L-64.02045775142531,-182.42576234478437A193.33333333333334,193.33333333333334,0,0,0,-107.3710360024826,-160.77698344455703Z"><title>Cereales</title></path><path fill="#5a9eed" display="" d="M-90.01334662896862,-271.4656468665108A286,286,0,0,1,-1.9999365840352141,-285.9930073509837L-1.999936584035313,-193.32298888502015A193.33333333333334,193.33333333333334,0,0,0,-60.23275176376954,-183.711168394145Z"><title>Legumbres</title></path></g><g id="labels" transform="translate(402.5,300)" text-anchor="middle"><text transform="rotate(90) translate(48.333333333333336,0) rotate(180)" style="opacity: 1;"><tspan x="0" y="4" style="font-family: Arial, sans-serif; font-size: 10px; fill: black; font-weight: normal;"/></text><text transform="rotate(-54.654956085319945) translate(145,0) rotate(0)" style="opacity: 1;"><tspan x="0" y="4" style="font-family: Arial, sans-serif; font-size: 10px; fill: black; font-weight: normal;">Desayuno</tspan></text><text transform="rotate(33.53826850690089) translate(145,0) rotate(0)" style="opacity: 1;"><tspan x="0" y="4" style="font-family: Arial, sans-serif; font-size: 10px; fill: black; font-weight: normal;">Almuerzo</tspan></text><text transform="rotate(125.51442910915938) translate(145,0) rotate(180)" style="opacity: 1;"><tspan x="0" y="4" style="font-family: Arial, sans-serif; font-size: 10px; fill: black; font-weight: normal;">Merienda</tspan></text><text transform="rotate(217.32120451693856) translate(145,0) rotate(180)" style="opacity: 1;"><tspan x="0" y="4" style="font-family: Arial, sans-serif; font-size: 10px; fill: black; font-weight: normal;">Cena</tspan></text><text transform="rotate(-77.29611041405269) translate(241.66666666666669,0) rotate(0)" style="opacity: 1;"><tspan x="0" y="4" style="font-family: Arial, sans-serif; font-size: 10px; fill: black; font-weight: normal;">Cereales</tspan></text><text transform="rotate(-54.76787954830615) translate(241.66666666666669,0) rotate(0)" style="opacity: 1;"><tspan x="0" y="4" style="font-family: Arial, sans-serif; font-size: 10px; fill: black; font-weight: normal;">L치cteos</tspan></text><text transform="rotate(-34.723964868255955) translate(241.66666666666669,0) rotate(0)" style="opacity: 1;"><tspan x="0" y="4" style="font-family: Arial, sans-serif; font-size: 10px; fill: black; font-weight: normal;">Frutas</tspan></text><text transform="rotate(-21.90715181932245) translate(241.66666666666669,0) rotate(0)" style="opacity: 1;"><tspan x="0" y="4" style="font-family: Arial, sans-serif; font-size: 10px; fill: black; font-weight: normal;">Frutos secos</tspan></text><text transform="rotate(-6.6060225846925675) translate(241.66666666666669,0) rotate(0)" style="opacity: 1;"><tspan x="0" y="4" style="font-family: Arial, sans-serif; font-size: 10px; fill: black; font-weight: normal;">Carnes</tspan></text><text transform="rotate(28.34378920953577) translate(241.66666666666669,0) rotate(0)" style="opacity: 1;"><tspan x="0" y="4" style="font-family: Arial, sans-serif; font-size: 10px; fill: black; font-weight: normal;">Verduras</tspan></text><text transform="rotate(58.833124215809306) translate(241.66666666666669,0) rotate(0)" style="opacity: 1;"><tspan x="0" y="4" style="font-family: Arial, sans-serif; font-size: 10px; fill: black; font-weight: normal;">Cereales</tspan></text><text transform="rotate(76.73149309912176) translate(241.66666666666669,0) rotate(0)" style="opacity: 1;"><tspan x="0" y="4" style="font-family: Arial, sans-serif; font-size: 10px; fill: black; font-weight: normal;">Legumbres</tspan></text><text transform="rotate(98.86449184441659) translate(241.66666666666669,0) rotate(180)" style="opacity: 1;"><tspan x="0" y="4" style="font-family: Arial, sans-serif; font-size: 10px; fill: black; font-weight: normal;">Frutas</tspan></text><text transform="rotate(123.76411543287335) translate(241.66666666666669,0) rotate(180)" style="opacity: 1;"><tspan x="0" y="4" style="font-family: Arial, sans-serif; font-size: 10px; fill: black; font-weight: normal;">L치cteos</tspan></text><text transform="rotate(142.79171894604775) translate(241.66666666666669,0) rotate(180)" style="opacity: 1;"><tspan x="0" y="4" style="font-family: Arial, sans-serif; font-size: 10px; fill: black; font-weight: normal;">Cereales</tspan></text><text transform="rotate(157.02007528230868) translate(241.66666666666669,0) rotate(180)" style="opacity: 1;"><tspan x="0" y="4" style="font-family: Arial, sans-serif; font-size: 10px; fill: black; font-weight: normal;">Frutos secos</tspan></text><text transform="rotate(176.9510664993727) translate(241.66666666666669,0) rotate(180)" style="opacity: 1;"><tspan x="0" y="4" style="font-family: Arial, sans-serif; font-size: 10px; fill: black; font-weight: normal;">Carnes</tspan></text><text transform="rotate(212.46549560853202) translate(241.66666666666669,0) rotate(180)" style="opacity: 1;"><tspan x="0" y="4" style="font-family: Arial, sans-serif; font-size: 10px; fill: black; font-weight: normal;">Verduras</tspan></text><text transform="rotate(243.46298619824353) translate(241.66666666666669,0) rotate(180)" style="opacity: 1;"><tspan x="0" y="4" style="font-family: Arial, sans-serif; font-size: 10px; fill: black; font-weight: normal;">Cereales</tspan></text><text transform="rotate(260.62735257214564) translate(241.66666666666669,0) rotate(180)" style="opacity: 1;"><tspan x="0" y="4" style="font-family: Arial, sans-serif; font-size: 10px; fill: black; font-weight: normal;">Legumbres</tspan></text></g></svg>